<?xml version="1.0" encoding="UTF-8"?>
<!DOCTYPE score-partwise PUBLIC "-//Recordare//DTD MusicXML 4.0 Partwise//EN" "http://www.musicxml.org/dtds/partwise.dtd">
<score-partwise version="4.0">
  <work>
    <work-title>32 Befiehl du deine Wege </work-title>
    </work>
  <identification>
    <creator type="composer">J.S. Bach (Orig. Martin Luther 1524)</creator>
    <creator type="lyricist">Martin Luther 1524</creator>
    <encoding>
      <software>MuseScore 4.4.4</software>
      <encoding-date>2025-02-16</encoding-date>
      <supports element="accidental" type="yes"/>
      <supports element="beam" type="yes"/>
      <supports element="print" attribute="new-page" type="yes" value="yes"/>
      <supports element="print" attribute="new-system" type="yes" value="yes"/>
      <supports element="stem" type="yes"/>
      </encoding>
    <source>https://musescore.com/score/3608366</source>
    </identification>
  <defaults>
    <scaling>
      <millimeters>6</millimeters>
      <tenths>40</tenths>
      </scaling>
    <page-layout>
      <page-height>1979.52</page-height>
      <page-width>1400.4</page-width>
      <page-margins type="even">
        <left-margin>66.6667</left-margin>
        <right-margin>66.6667</right-margin>
        <top-margin>66.6667</top-margin>
        <bottom-margin>133.334</bottom-margin>
        </page-margins>
      <page-margins type="odd">
        <left-margin>66.6667</left-margin>
        <right-margin>66.6667</right-margin>
        <top-margin>66.6667</top-margin>
        <bottom-margin>133.334</bottom-margin>
        </page-margins>
      </page-layout>
    <appearance>
      <line-width type="light barline">1.8</line-width>
      <line-width type="heavy barline">5.5</line-width>
      <line-width type="beam">5</line-width>
      <line-width type="bracket">4.4</line-width>
      <line-width type="dashes">1.5</line-width>
      <line-width type="enclosure">0</line-width>
      <line-width type="ending">1.1</line-width>
      <line-width type="extend">1</line-width>
      <line-width type="leger">1.6</line-width>
      <line-width type="pedal">1.1</line-width>
      <line-width type="octave shift">1.1</line-width>
      <line-width type="slur middle">2.1</line-width>
      <line-width type="slur tip">0.7</line-width>
      <line-width type="staff">1.1</line-width>
      <line-width type="stem">1.1</line-width>
      <line-width type="tie middle">2.1</line-width>
      <line-width type="tie tip">0.7</line-width>
      <line-width type="tuplet bracket">1</line-width>
      <line-width type="wedge">1.2</line-width>
      <note-size type="cue">70</note-size>
      <note-size type="grace">70</note-size>
      <note-size type="grace-cue">49</note-size>
      </appearance>
    <music-font font-family="Leland"/>
    <word-font font-family="Edwin" font-size="10"/>
    <lyric-font font-family="Edwin" font-size="10"/>
    </defaults>
  <credit page="1">
    <credit-type>title</credit-type>
    <credit-words default-x="700.19926" default-y="1912.856897" justify="center" valign="top" font-size="19">32. Befiehl du deine Wege </credit-words>
    </credit>
  <credit page="1">
    <credit-type>subtitle</credit-type>
    <credit-words default-x="700.19926" default-y="1846.190231" justify="center" valign="top" font-size="16">(B.A. 39, No 20, BWV 272)</credit-words>
    </credit>
  <credit page="1">
    <credit-type>lyricist</credit-type>
    <credit-words default-x="66.666703" default-y="1785.229897" justify="left" valign="bottom" font-size="11">P. Gerhardt 1656 </credit-words>
    </credit>
  <credit page="1">
    <credit-type>composer</credit-type>
    <credit-words default-x="1333.731817" default-y="1785.229897" justify="right" valign="bottom"> J.S. Bach (Orig. Barth. Gesius 1603)</credit-words>
    </credit>
  <part-list>
    <part-group type="start" number="1">
      <group-symbol>brace</group-symbol>
      </part-group>
    <score-part id="P1">
      <part-name print-object="no">Soprano/Alto</part-name>
      <score-instrument id="P1-I1">
        <instrument-name>Soprano/Alto</instrument-name>
        <instrument-sound>voice.vocals</instrument-sound>
        </score-instrument>
      <midi-device id="P1-I1" port="1"></midi-device>
      <midi-instrument id="P1-I1">
        <midi-channel>1</midi-channel>
        <midi-program>53</midi-program>
        <volume>78.7402</volume>
        <pan>-14</pan>
        </midi-instrument>
      </score-part>
    <score-part id="P2">
      <part-name print-object="no">Tenor/Bass</part-name>
      <score-instrument id="P2-I1">
        <instrument-name>Tenor/Bass</instrument-name>
        <instrument-sound>voice.vocals</instrument-sound>
        </score-instrument>
      <midi-device id="P2-I1" port="1"></midi-device>
      <midi-instrument id="P2-I1">
        <midi-channel>2</midi-channel>
        <midi-program>53</midi-program>
        <volume>78.7402</volume>
        <pan>-23</pan>
        </midi-instrument>
      </score-part>
    <part-group type="stop" number="1"/>
    </part-list>
  <part id="P1">
    <measure number="0" implicit="yes" width="222.76">
      <print>
        <system-layout>
          <system-margins>
            <left-margin>0</left-margin>
            <right-margin>0</right-margin>
            </system-margins>
          <top-system-distance>197.63</top-system-distance>
          </system-layout>
        </print>
      <attributes>
        <divisions>4</divisions>
        <key>
          <fifths>-1</fifths>
          </key>
        <time symbol="common">
          <beats>4</beats>
          <beat-type>4</beat-type>
          </time>
        <clef>
          <sign>G</sign>
          <line>2</line>
          </clef>
        </attributes>
      <note default-x="101.39" default-y="-45">
        <pitch>
          <step>D</step>
          <octave>4</octave>
          </pitch>
        <duration>2</duration>
        <voice>1</voice>
        <type>eighth</type>
        <stem>up</stem>
        <beam number="1">begin</beam>
        <lyric number="1" default-y="-75.74" relative-y="-36.67">
          <syllabic>begin</syllabic>
          <text>Be</text>
          </lyric>
        <lyric number="2" default-y="-103.96" relative-y="-36.67">
          <syllabic>single</syllabic>
          <text>der</text>
          <extend/>
          </lyric>
        </note>
      <note default-x="161.18" default-y="-40">
        <pitch>
          <step>E</step>
          <octave>4</octave>
          </pitch>
        <duration>2</duration>
        <voice>1</voice>
        <type>eighth</type>
        <stem>up</stem>
        <beam number="1">end</beam>
        </note>
      <backup>
        <duration>4</duration>
        </backup>
      <note default-x="101.39" default-y="-45">
        <pitch>
          <step>D</step>
          <octave>4</octave>
          </pitch>
        <duration>2</duration>
        <voice>2</voice>
        <type>eighth</type>
        <stem>down</stem>
        <beam number="1">begin</beam>
        </note>
      <note default-x="161.18" default-y="-50">
        <pitch>
          <step>C</step>
          <alter>1</alter>
          <octave>4</octave>
          </pitch>
        <duration>2</duration>
        <voice>2</voice>
        <type>eighth</type>
        <accidental>sharp</accidental>
        <stem>down</stem>
        <beam number="1">end</beam>
        </note>
      </measure>
    <measure number="1" width="410.16">
      <note default-x="19.76" default-y="-35">
        <pitch>
          <step>F</step>
          <octave>4</octave>
          </pitch>
        <duration>4</duration>
        <voice>1</voice>
        <type>quarter</type>
        <stem>up</stem>
        <lyric number="1" default-x="6.5" default-y="-75.74" relative-y="-36.67">
          <syllabic>end</syllabic>
          <text>fiehl</text>
          </lyric>
        <lyric number="2" default-x="6.5" default-y="-103.96" relative-y="-36.67">
          <syllabic>begin</syllabic>
          <text>al</text>
          </lyric>
        </note>
      <note default-x="79.54" default-y="-40">
        <pitch>
          <step>E</step>
          <octave>4</octave>
          </pitch>
        <duration>4</duration>
        <voice>1</voice>
        <type>quarter</type>
        <stem>up</stem>
        <lyric number="1" default-x="6.5" default-y="-75.74" relative-y="-36.67">
          <syllabic>single</syllabic>
          <text>du</text>
          </lyric>
        <lyric number="2" default-x="6.5" default-y="-103.96" relative-y="-36.67">
          <syllabic>middle</syllabic>
          <text>ler</text>
          </lyric>
        </note>
      <note default-x="169.22" default-y="-35">
        <pitch>
          <step>F</step>
          <octave>4</octave>
          </pitch>
        <duration>4</duration>
        <voice>1</voice>
        <type>quarter</type>
        <stem>up</stem>
        <lyric number="1" default-x="6.5" default-y="-75.74" relative-y="-36.67">
          <syllabic>begin</syllabic>
          <text>dei</text>
          </lyric>
        <lyric number="2" default-x="6.5" default-y="-103.96" relative-y="-36.67">
          <syllabic>middle</syllabic>
          <text>treu</text>
          </lyric>
        </note>
      <note default-x="288.79" default-y="-30">
        <pitch>
          <step>G</step>
          <octave>4</octave>
          </pitch>
        <duration>4</duration>
        <voice>1</voice>
        <type>quarter</type>
        <stem>up</stem>
        <lyric number="1" default-x="6.5" default-y="-75.74" relative-y="-36.67">
          <syllabic>end</syllabic>
          <text>ne</text>
          </lyric>
        <lyric number="2" default-x="6.5" default-y="-103.96" relative-y="-36.67">
          <syllabic>end</syllabic>
          <text>sten</text>
          </lyric>
        </note>
      <backup>
        <duration>16</duration>
        </backup>
      <note default-x="19.76" default-y="-45">
        <pitch>
          <step>D</step>
          <octave>4</octave>
          </pitch>
        <duration>4</duration>
        <voice>2</voice>
        <type>quarter</type>
        <stem>down</stem>
        </note>
      <note default-x="79.54" default-y="-55">
        <pitch>
          <step>B</step>
          <alter>-1</alter>
          <octave>3</octave>
          </pitch>
        <duration>4</duration>
        <voice>2</voice>
        <type>quarter</type>
        <stem>down</stem>
        </note>
      <note default-x="169.22" default-y="-60">
        <pitch>
          <step>A</step>
          <octave>3</octave>
          </pitch>
        <duration>4</duration>
        <voice>2</voice>
        <type>quarter</type>
        <stem>down</stem>
        </note>
      <note default-x="288.79" default-y="-45">
        <pitch>
          <step>D</step>
          <octave>4</octave>
          </pitch>
        <duration>2</duration>
        <voice>2</voice>
        <type>eighth</type>
        <stem>down</stem>
        <beam number="1">begin</beam>
        </note>
      <note default-x="348.57" default-y="-50">
        <pitch>
          <step>C</step>
          <octave>4</octave>
          </pitch>
        <duration>2</duration>
        <voice>2</voice>
        <type>eighth</type>
        <accidental cautionary="yes" parentheses="no">natural</accidental>
        <stem>down</stem>
        <beam number="1">end</beam>
        </note>
      </measure>
    <measure number="2" width="197.62">
      <note default-x="16.46" default-y="-25">
        <pitch>
          <step>A</step>
          <octave>4</octave>
          </pitch>
        <duration>8</duration>
        <voice>1</voice>
        <type>half</type>
        <stem>up</stem>
        <lyric number="1" default-x="6.5" default-y="-75.74" relative-y="-36.67">
          <syllabic>begin</syllabic>
          <text>We</text>
          </lyric>
        <lyric number="2" default-x="6.5" default-y="-103.96" relative-y="-36.67">
          <syllabic>begin</syllabic>
          <text>Pfle</text>
          </lyric>
        </note>
      <note default-x="76.25" default-y="-25">
        <pitch>
          <step>A</step>
          <octave>4</octave>
          </pitch>
        <duration>4</duration>
        <voice>1</voice>
        <type>quarter</type>
        <stem>up</stem>
        <notations>
          <fermata type="upright" default-y="1.5" relative-y="10"/>
          </notations>
        <lyric number="1" default-x="9.32" default-y="-75.74" relative-y="-36.67">
          <syllabic>end</syllabic>
          <text>ge,</text>
          </lyric>
        <lyric number="2" default-x="6.5" default-y="-103.96" relative-y="-36.67">
          <syllabic>end</syllabic>
          <text>ge</text>
          </lyric>
        </note>
      <note default-x="136.03" default-y="-15">
        <pitch>
          <step>C</step>
          <octave>5</octave>
          </pitch>
        <duration>4</duration>
        <voice>1</voice>
        <type>quarter</type>
        <stem>up</stem>
        <lyric number="1" default-x="6.5" default-y="-75.74" relative-y="-36.67">
          <syllabic>single</syllabic>
          <text>und</text>
          </lyric>
        <lyric number="2" default-x="9.55" default-y="-103.96" relative-y="-36.67">
          <syllabic>single</syllabic>
          <text>des,</text>
          </lyric>
        </note>
      <backup>
        <duration>16</duration>
        </backup>
      <note default-x="16.46" default-y="-50">
        <pitch>
          <step>C</step>
          <octave>4</octave>
          </pitch>
        <duration>8</duration>
        <voice>2</voice>
        <type>half</type>
        <stem>down</stem>
        </note>
      <note default-x="76.25" default-y="-50">
        <pitch>
          <step>C</step>
          <octave>4</octave>
          </pitch>
        <duration>4</duration>
        <voice>2</voice>
        <type>quarter</type>
        <stem>down</stem>
        </note>
      <note default-x="136.03" default-y="-50">
        <pitch>
          <step>C</step>
          <octave>4</octave>
          </pitch>
        <duration>4</duration>
        <voice>2</voice>
        <type>quarter</type>
        <stem>down</stem>
        </note>
      </measure>
    <measure number="3" width="317.42">
      <note default-x="16.7" default-y="-20">
        <pitch>
          <step>B</step>
          <octave>4</octave>
          </pitch>
        <duration>4</duration>
        <voice>1</voice>
        <type>quarter</type>
        <accidental>natural</accidental>
        <stem>up</stem>
        <lyric number="1" default-x="6.5" default-y="-75.74" relative-y="-36.67">
          <syllabic>single</syllabic>
          <text>was</text>
          </lyric>
        <lyric number="2" default-x="6.5" default-y="-103.96" relative-y="-36.67">
          <syllabic>single</syllabic>
          <text>der</text>
          </lyric>
        </note>
      <note default-x="76.48" default-y="-25">
        <pitch>
          <step>A</step>
          <octave>4</octave>
          </pitch>
        <duration>4</duration>
        <voice>1</voice>
        <type>quarter</type>
        <stem>up</stem>
        <lyric number="1" default-x="6.5" default-y="-75.74" relative-y="-36.67">
          <syllabic>single</syllabic>
          <text>dein</text>
          </lyric>
        <lyric number="2" default-x="6.5" default-y="-103.96" relative-y="-36.67">
          <syllabic>single</syllabic>
          <text>den</text>
          </lyric>
        </note>
      <note default-x="136.27" default-y="-25">
        <pitch>
          <step>A</step>
          <octave>4</octave>
          </pitch>
        <duration>4</duration>
        <voice>1</voice>
        <type>quarter</type>
        <stem>up</stem>
        <lyric number="1" default-x="6.5" default-y="-75.74" relative-y="-36.67">
          <syllabic>begin</syllabic>
          <text>Her</text>
          </lyric>
        <lyric number="2" default-x="6.5" default-y="-103.96" relative-y="-36.67">
          <syllabic>begin</syllabic>
          <text>Him</text>
          </lyric>
        </note>
      <note default-x="255.84" default-y="-30">
        <pitch>
          <step>G</step>
          <alter>1</alter>
          <octave>4</octave>
          </pitch>
        <duration>4</duration>
        <voice>1</voice>
        <type>quarter</type>
        <accidental>sharp</accidental>
        <stem>up</stem>
        <lyric number="1" default-x="6.5" default-y="-75.74" relative-y="-36.67">
          <syllabic>end</syllabic>
          <text>ze</text>
          </lyric>
        <lyric number="2" default-x="6.5" default-y="-103.96" relative-y="-36.67">
          <syllabic>end</syllabic>
          <text>mel</text>
          </lyric>
        </note>
      <backup>
        <duration>16</duration>
        </backup>
      <note default-x="16.7" default-y="-35">
        <pitch>
          <step>F</step>
          <octave>4</octave>
          </pitch>
        <duration>4</duration>
        <voice>2</voice>
        <type>quarter</type>
        <stem>down</stem>
        </note>
      <note default-x="76.48" default-y="-35">
        <pitch>
          <step>F</step>
          <alter>1</alter>
          <octave>4</octave>
          </pitch>
        <duration>4</duration>
        <voice>2</voice>
        <type>quarter</type>
        <accidental>sharp</accidental>
        <stem>down</stem>
        </note>
      <note default-x="136.27" default-y="-40">
        <pitch>
          <step>E</step>
          <octave>4</octave>
          </pitch>
        <duration>4</duration>
        <voice>2</voice>
        <type>quarter</type>
        <stem>down</stem>
        </note>
      <note default-x="255.84" default-y="-40">
        <pitch>
          <step>E</step>
          <octave>4</octave>
          </pitch>
        <duration>4</duration>
        <voice>2</voice>
        <type>quarter</type>
        <stem>down</stem>
        </note>
      </measure>
    <measure number="4" width="119.11">
      <note default-x="33.87" default-y="-25">
        <pitch>
          <step>A</step>
          <octave>4</octave>
          </pitch>
        <duration>12</duration>
        <voice>1</voice>
        <type>half</type>
        <dot default-x="50.36" default-y="-25"/>
        <stem>up</stem>
        <notations>
          <fermata type="upright" default-y="1.5" relative-y="10"/>
          </notations>
        <lyric number="1" default-x="9.32" default-y="-75.74" relative-y="-36.67">
          <syllabic>single</syllabic>
          <text>kränkt,</text>
          </lyric>
        <lyric number="2" default-x="8.85" default-y="-103.96" relative-y="-36.67">
          <syllabic>single</syllabic>
          <text>lenkt.</text>
          </lyric>
        </note>
      <backup>
        <duration>12</duration>
        </backup>
      <note default-x="33.87" default-y="-40">
        <pitch>
          <step>E</step>
          <octave>4</octave>
          </pitch>
        <duration>12</duration>
        <voice>2</voice>
        <type>half</type>
        <dot default-x="50.36" default-y="-45"/>
        <stem>down</stem>
        </note>
      <barline location="right">
        <bar-style>light-heavy</bar-style>
        <repeat direction="backward"/>
        </barline>
      </measure>
    <measure number="X1" implicit="yes" width="168.25">
      <print new-system="yes">
        <system-layout>
          <system-margins>
            <left-margin>0</left-margin>
            <right-margin>0</right-margin>
            </system-margins>
          <system-distance>100</system-distance>
          </system-layout>
        </print>
      <note default-x="77.87" default-y="-25">
        <pitch>
          <step>A</step>
          <octave>4</octave>
          </pitch>
        <duration>4</duration>
        <voice>1</voice>
        <type>quarter</type>
        <stem>up</stem>
        <lyric number="2" default-x="6.5" default-y="-68.22" relative-x="-2.2" relative-y="-49.69">
          <syllabic>single</syllabic>
          <text>Der</text>
          </lyric>
        </note>
      <backup>
        <duration>4</duration>
        </backup>
      <note default-x="77.87" default-y="-40">
        <pitch>
          <step>E</step>
          <octave>4</octave>
          </pitch>
        <duration>2</duration>
        <voice>2</voice>
        <type>eighth</type>
        <stem>down</stem>
        <beam number="1">begin</beam>
        </note>
      <note default-x="122.16" default-y="-35">
        <pitch>
          <step>F</step>
          <alter>1</alter>
          <octave>4</octave>
          </pitch>
        <duration>2</duration>
        <voice>2</voice>
        <type>eighth</type>
        <accidental>sharp</accidental>
        <stem>down</stem>
        <beam number="1">end</beam>
        </note>
      </measure>
    <measure number="5" width="341.16">
      <note default-x="24.99" default-y="-20">
        <pitch>
          <step>B</step>
          <octave>4</octave>
          </pitch>
        <duration>4</duration>
        <voice>1</voice>
        <type>quarter</type>
        <accidental>natural</accidental>
        <stem>up</stem>
        <lyric number="2" default-x="6.5" default-y="-68.22" relative-x="-2.2" relative-y="-49.69">
          <syllabic>begin</syllabic>
          <text>Wol</text>
          </lyric>
        </note>
      <note default-x="69.28" default-y="-15">
        <pitch>
          <step>C</step>
          <octave>5</octave>
          </pitch>
        <duration>4</duration>
        <voice>1</voice>
        <type>quarter</type>
        <stem>up</stem>
        <lyric number="2" default-x="9.08" default-y="-68.22" relative-x="-0.38" relative-y="-49.69">
          <syllabic>end</syllabic>
          <text>ken,</text>
          </lyric>
        </note>
      <note default-x="157.85" default-y="-10">
        <pitch>
          <step>D</step>
          <octave>5</octave>
          </pitch>
        <duration>2</duration>
        <voice>1</voice>
        <type>eighth</type>
        <stem>up</stem>
        <beam number="1">begin</beam>
        <lyric number="2" default-y="-68.22" relative-x="9.35" relative-y="-49.69">
          <syllabic>single</syllabic>
          <text>Luft</text>
          <extend/>
          </lyric>
        </note>
      <note default-x="202.14" default-y="-15">
        <pitch>
          <step>C</step>
          <octave>5</octave>
          </pitch>
        <duration>2</duration>
        <voice>1</voice>
        <type>eighth</type>
        <stem>up</stem>
        <beam number="1">end</beam>
        </note>
      <note default-x="250.79" default-y="-20">
        <pitch>
          <step>B</step>
          <octave>4</octave>
          </pitch>
        <duration>4</duration>
        <voice>1</voice>
        <type>quarter</type>
        <accidental cautionary="yes" parentheses="no">natural</accidental>
        <stem>up</stem>
        <lyric number="2" default-x="6.5" default-y="-68.22" relative-x="-2.2" relative-y="-49.69">
          <syllabic>single</syllabic>
          <text>und</text>
          </lyric>
        </note>
      <backup>
        <duration>16</duration>
        </backup>
      <note default-x="24.99" default-y="-30">
        <pitch>
          <step>G</step>
          <alter>1</alter>
          <octave>4</octave>
          </pitch>
        <duration>4</duration>
        <voice>2</voice>
        <type>quarter</type>
        <accidental>sharp</accidental>
        <stem>down</stem>
        </note>
      <note default-x="69.28" default-y="-25">
        <pitch>
          <step>A</step>
          <octave>4</octave>
          </pitch>
        <duration>4</duration>
        <voice>2</voice>
        <type>quarter</type>
        <stem>down</stem>
        </note>
      <note default-x="157.85" default-y="-25">
        <pitch>
          <step>A</step>
          <octave>4</octave>
          </pitch>
        <duration>4</duration>
        <voice>2</voice>
        <type>quarter</type>
        <stem>down</stem>
        </note>
      <note default-x="250.79" default-y="-30">
        <pitch>
          <step>G</step>
          <octave>4</octave>
          </pitch>
        <duration>4</duration>
        <voice>2</voice>
        <type>quarter</type>
        <accidental>natural</accidental>
        <stem>down</stem>
        </note>
      </measure>
    <measure number="6" width="323.81">
      <note default-x="12" default-y="-15">
        <pitch>
          <step>C</step>
          <octave>5</octave>
          </pitch>
        <duration>6</duration>
        <voice>1</voice>
        <type>quarter</type>
        <dot default-x="28.49" default-y="-15"/>
        <stem>up</stem>
        <notations>
          <slur type="start" number="1"/>
          </notations>
        <lyric number="2" default-y="-68.22" relative-x="8.94" relative-y="-49.69">
          <syllabic>begin</syllabic>
          <text>Win</text>
          </lyric>
        </note>
      <note default-x="144.86" default-y="-20">
        <pitch>
          <step>B</step>
          <alter>-1</alter>
          <octave>4</octave>
          </pitch>
        <duration>2</duration>
        <voice>1</voice>
        <type>eighth</type>
        <accidental cautionary="yes" parentheses="no">flat</accidental>
        <stem>up</stem>
        <notations>
          <slur type="stop" number="1"/>
          </notations>
        </note>
      <note default-x="189.15" default-y="-25">
        <pitch>
          <step>A</step>
          <octave>4</octave>
          </pitch>
        <duration>4</duration>
        <voice>1</voice>
        <type>quarter</type>
        <stem>up</stem>
        <notations>
          <fermata type="upright" relative-y="23.73"/>
          </notations>
        <lyric number="2" default-x="6.5" default-y="-68.22" relative-x="-2.2" relative-y="-49.69">
          <syllabic>single</syllabic>
          <text>den</text>
          </lyric>
        </note>
      <note default-x="233.44" default-y="-25">
        <pitch>
          <step>A</step>
          <octave>4</octave>
          </pitch>
        <duration>4</duration>
        <voice>1</voice>
        <type>quarter</type>
        <stem>up</stem>
        <lyric number="2" default-x="6.5" default-y="-68.22" relative-x="-2.2" relative-y="-49.69">
          <syllabic>single</syllabic>
          <text>gibt</text>
          </lyric>
        </note>
      <backup>
        <duration>16</duration>
        </backup>
      <note default-x="12" default-y="-30">
        <pitch>
          <step>G</step>
          <octave>4</octave>
          </pitch>
        <duration>4</duration>
        <voice>2</voice>
        <type>quarter</type>
        <stem>down</stem>
        <notations>
          <slur type="start" number="1"/>
          </notations>
        </note>
      <note default-x="100.57" default-y="-35">
        <pitch>
          <step>F</step>
          <octave>4</octave>
          </pitch>
        <duration>2</duration>
        <voice>2</voice>
        <type>eighth</type>
        <stem>down</stem>
        <beam number="1">begin</beam>
        </note>
      <note default-x="144.86" default-y="-30">
        <pitch>
          <step>G</step>
          <octave>4</octave>
          </pitch>
        <duration>2</duration>
        <voice>2</voice>
        <type>eighth</type>
        <stem>down</stem>
        <beam number="1">end</beam>
        <notations>
          <slur type="stop" number="1"/>
          </notations>
        </note>
      <note default-x="189.15" default-y="-35">
        <pitch>
          <step>F</step>
          <octave>4</octave>
          </pitch>
        <duration>4</duration>
        <voice>2</voice>
        <type>quarter</type>
        <stem>down</stem>
        </note>
      <note default-x="233.44" default-y="-35">
        <pitch>
          <step>F</step>
          <octave>4</octave>
          </pitch>
        <duration>2</duration>
        <voice>2</voice>
        <type>eighth</type>
        <stem>down</stem>
        <beam number="1">begin</beam>
        </note>
      <note default-x="277.72" default-y="-40">
        <pitch>
          <step>E</step>
          <alter>-1</alter>
          <octave>4</octave>
          </pitch>
        <duration>2</duration>
        <voice>2</voice>
        <type>eighth</type>
        <accidental>flat</accidental>
        <stem>down</stem>
        <beam number="1">end</beam>
        </note>
      </measure>
    <measure number="7" width="269.55">
      <note default-x="14.67" default-y="-30">
        <pitch>
          <step>G</step>
          <octave>4</octave>
          </pitch>
        <duration>4</duration>
        <voice>1</voice>
        <type>quarter</type>
        <stem>up</stem>
        <lyric number="2" default-x="6.5" default-y="-68.22" relative-x="-2.2" relative-y="-49.69">
          <syllabic>begin</syllabic>
          <text>We</text>
          </lyric>
        </note>
      <note default-x="58.95" default-y="-35">
        <pitch>
          <step>F</step>
          <octave>4</octave>
          </pitch>
        <duration>4</duration>
        <voice>1</voice>
        <type>quarter</type>
        <stem>up</stem>
        <lyric number="2" default-x="9.32" default-y="-68.22" relative-x="-0.38" relative-y="-49.69">
          <syllabic>end</syllabic>
          <text>ge,</text>
          </lyric>
        </note>
      <note default-x="107.02" default-y="-35">
        <pitch>
          <step>F</step>
          <octave>4</octave>
          </pitch>
        <duration>4</duration>
        <voice>1</voice>
        <type>quarter</type>
        <stem>up</stem>
        <lyric number="2" default-x="6.5" default-y="-68.22" relative-x="-2.2" relative-y="-49.69">
          <syllabic>single</syllabic>
          <text>Lauf</text>
          </lyric>
        </note>
      <note default-x="157.03" default-y="-40">
        <pitch>
          <step>E</step>
          <octave>4</octave>
          </pitch>
        <duration>4</duration>
        <voice>1</voice>
        <type>quarter</type>
        <stem>up</stem>
        <lyric number="2" default-x="6.5" default-y="-68.22" relative-x="-2.2" relative-y="-49.69">
          <syllabic>single</syllabic>
          <text>und</text>
          </lyric>
        </note>
      <backup>
        <duration>16</duration>
        </backup>
      <note default-x="14.67" default-y="-45">
        <pitch>
          <step>D</step>
          <octave>4</octave>
          </pitch>
        <duration>4</duration>
        <voice>2</voice>
        <type>quarter</type>
        <stem>down</stem>
        </note>
      <note default-x="58.95" default-y="-45">
        <pitch>
          <step>D</step>
          <octave>4</octave>
          </pitch>
        <duration>4</duration>
        <voice>2</voice>
        <type>quarter</type>
        <stem>down</stem>
        </note>
      <note default-x="107.02" default-y="-50">
        <pitch>
          <step>C</step>
          <octave>4</octave>
          </pitch>
        <duration>4</duration>
        <voice>2</voice>
        <type>quarter</type>
        <stem>down</stem>
        </note>
      <note default-x="157.03" default-y="-50">
        <pitch>
          <step>C</step>
          <octave>4</octave>
          </pitch>
        <duration>4</duration>
        <voice>2</voice>
        <type>quarter</type>
        <stem>down</stem>
        </note>
      </measure>
    <measure number="8" width="164.29">
      <note default-x="25.79" default-y="-35">
        <pitch>
          <step>F</step>
          <octave>4</octave>
          </pitch>
        <duration>12</duration>
        <voice>1</voice>
        <type>half</type>
        <dot default-x="42.29" default-y="-35"/>
        <stem>up</stem>
        <notations>
          <fermata type="upright" relative-y="10"/>
          <articulations>
            <breath-mark>comma</breath-mark>
            </articulations>
          </notations>
        <lyric number="2" default-x="9.32" default-y="-68.22" relative-x="-0.63" relative-y="-49.69">
          <syllabic>single</syllabic>
          <text>Bahn,</text>
          </lyric>
        </note>
      <note default-x="73.92" default-y="-25">
        <pitch>
          <step>A</step>
          <octave>4</octave>
          </pitch>
        <duration>2</duration>
        <voice>1</voice>
        <type>eighth</type>
        <stem>up</stem>
        <beam number="1">begin</beam>
        <lyric number="2" default-y="-68.22" relative-x="4.76" relative-y="-49.69">
          <syllabic>single</syllabic>
          <text>der</text>
          <extend/>
          </lyric>
        </note>
      <note default-x="118.21" default-y="-30">
        <pitch>
          <step>G</step>
          <octave>4</octave>
          </pitch>
        <duration>2</duration>
        <voice>1</voice>
        <type>eighth</type>
        <stem>up</stem>
        <beam number="1">end</beam>
        </note>
      <backup>
        <duration>16</duration>
        </backup>
      <note default-x="25.79" default-y="-50">
        <pitch>
          <step>C</step>
          <octave>4</octave>
          </pitch>
        <duration>12</duration>
        <voice>2</voice>
        <type>half</type>
        <dot default-x="42.29" default-y="-55"/>
        <stem>down</stem>
        </note>
      <note default-x="73.92" default-y="-40">
        <pitch>
          <step>E</step>
          <octave>4</octave>
          </pitch>
        <duration>4</duration>
        <voice>2</voice>
        <type>quarter</type>
        <stem>down</stem>
        </note>
      </measure>
    <measure number="9" width="492.91">
      <print new-system="yes">
        <system-layout>
          <system-margins>
            <left-margin>0</left-margin>
            <right-margin>0</right-margin>
            </system-margins>
          <system-distance>100</system-distance>
          </system-layout>
        </print>
      <note default-x="77.87" default-y="-35">
        <pitch>
          <step>F</step>
          <octave>4</octave>
          </pitch>
        <duration>4</duration>
        <voice>1</voice>
        <type>quarter</type>
        <stem>up</stem>
        <lyric number="2" default-x="6.5" default-y="-68.22" relative-x="-2.2" relative-y="-49.69">
          <syllabic>single</syllabic>
          <text>wird</text>
          </lyric>
        </note>
      <note default-x="181.18" default-y="-30">
        <pitch>
          <step>G</step>
          <octave>4</octave>
          </pitch>
        <duration>4</duration>
        <voice>1</voice>
        <type>quarter</type>
        <stem>up</stem>
        <lyric number="2" default-x="6.5" default-y="-68.22" relative-x="-2.2" relative-y="-49.69">
          <syllabic>single</syllabic>
          <text>auch</text>
          </lyric>
        </note>
      <note default-x="284.49" default-y="-25">
        <pitch>
          <step>A</step>
          <octave>4</octave>
          </pitch>
        <duration>4</duration>
        <voice>1</voice>
        <type>quarter</type>
        <stem>up</stem>
        <lyric number="2" default-x="6.5" default-y="-68.22" relative-x="-2.2" relative-y="-49.69">
          <syllabic>begin</syllabic>
          <text>We</text>
          </lyric>
        </note>
      <note default-x="387.8" default-y="-30">
        <pitch>
          <step>G</step>
          <octave>4</octave>
          </pitch>
        <duration>4</duration>
        <voice>1</voice>
        <type>quarter</type>
        <stem>up</stem>
        <lyric number="2" default-x="6.5" default-y="-68.22" relative-x="-2.2" relative-y="-49.69">
          <syllabic>end</syllabic>
          <text>ge</text>
          </lyric>
        </note>
      <backup>
        <duration>16</duration>
        </backup>
      <note default-x="92.37" default-y="-35">
        <pitch>
          <step>F</step>
          <octave>4</octave>
          </pitch>
        <duration>6</duration>
        <voice>2</voice>
        <type>quarter</type>
        <dot default-x="108.86" default-y="-35"/>
        <stem>down</stem>
        </note>
      <note default-x="232.84" default-y="-40">
        <pitch>
          <step>E</step>
          <octave>4</octave>
          </pitch>
        <duration>2</duration>
        <voice>2</voice>
        <type>eighth</type>
        <stem>down</stem>
        </note>
      <note default-x="284.49" default-y="-35">
        <pitch>
          <step>F</step>
          <octave>4</octave>
          </pitch>
        <duration>6</duration>
        <voice>2</voice>
        <type>quarter</type>
        <dot default-x="300.99" default-y="-35"/>
        <stem>down</stem>
        </note>
      <note default-x="439.46" default-y="-40">
        <pitch>
          <step>E</step>
          <octave>4</octave>
          </pitch>
        <duration>2</duration>
        <voice>2</voice>
        <type>eighth</type>
        <stem>down</stem>
        </note>
      </measure>
    <measure number="10" width="324.53">
      <note default-x="12.8" default-y="-35">
        <pitch>
          <step>F</step>
          <octave>4</octave>
          </pitch>
        <duration>8</duration>
        <voice>1</voice>
        <type>half</type>
        <stem>up</stem>
        <lyric number="2" default-x="6.5" default-y="-68.22" relative-x="-2.45" relative-y="-49.69">
          <syllabic>begin</syllabic>
          <text>fin</text>
          </lyric>
        </note>
      <note default-x="219.42" default-y="-40">
        <pitch>
          <step>E</step>
          <octave>4</octave>
          </pitch>
        <duration>4</duration>
        <voice>1</voice>
        <type>quarter</type>
        <stem>up</stem>
        <notations>
          <fermata type="upright" relative-y="10"/>
          </notations>
        <lyric number="2" default-x="9.55" default-y="-68.22" relative-x="-0.38" relative-y="-49.69">
          <syllabic>end</syllabic>
          <text>den,</text>
          </lyric>
        </note>
      <note default-x="271.08" default-y="-35">
        <pitch>
          <step>F</step>
          <octave>4</octave>
          </pitch>
        <duration>4</duration>
        <voice>1</voice>
        <type>quarter</type>
        <stem>up</stem>
        <lyric number="2" default-x="6.5" default-y="-68.22" relative-x="-2.2" relative-y="-49.69">
          <syllabic>single</syllabic>
          <text>die</text>
          </lyric>
        </note>
      <backup>
        <duration>16</duration>
        </backup>
      <note default-x="24.7" default-y="-40">
        <pitch>
          <step>E</step>
          <octave>4</octave>
          </pitch>
        <duration>2</duration>
        <voice>2</voice>
        <type>eighth</type>
        <stem>down</stem>
        <beam number="1">begin</beam>
        <notations>
          <slur type="start" number="1"/>
          </notations>
        </note>
      <note default-x="64.46" default-y="-45">
        <pitch>
          <step>D</step>
          <octave>4</octave>
          </pitch>
        <duration>2</duration>
        <tie type="start"/>
        <voice>2</voice>
        <type>eighth</type>
        <stem>down</stem>
        <beam number="1">end</beam>
        <notations>
          <tied type="start"/>
          </notations>
        </note>
      <note default-x="116.11" default-y="-45">
        <pitch>
          <step>D</step>
          <octave>4</octave>
          </pitch>
        <duration>4</duration>
        <tie type="stop"/>
        <voice>2</voice>
        <type>quarter</type>
        <stem>down</stem>
        <notations>
          <tied type="stop"/>
          <slur type="stop" number="1"/>
          </notations>
        </note>
      <note default-x="219.42" default-y="-50">
        <pitch>
          <step>C</step>
          <alter>1</alter>
          <octave>4</octave>
          </pitch>
        <duration>4</duration>
        <voice>2</voice>
        <type>quarter</type>
        <accidental>sharp</accidental>
        <stem>down</stem>
        </note>
      <note default-x="271.08" default-y="-45">
        <pitch>
          <step>D</step>
          <octave>4</octave>
          </pitch>
        <duration>4</duration>
        <voice>2</voice>
        <type>quarter</type>
        <stem>down</stem>
        </note>
      </measure>
    <measure number="11" width="358.81">
      <note default-x="21.25" default-y="-30">
        <pitch>
          <step>G</step>
          <octave>4</octave>
          </pitch>
        <duration>4</duration>
        <voice>1</voice>
        <type>quarter</type>
        <stem>up</stem>
        <lyric number="2" default-x="6.5" default-y="-68.22" relative-x="-2.2" relative-y="-49.69">
          <syllabic>single</syllabic>
          <text>dein</text>
          </lyric>
        </note>
      <note default-x="124.56" default-y="-35">
        <pitch>
          <step>F</step>
          <octave>4</octave>
          </pitch>
        <duration>4</duration>
        <voice>1</voice>
        <type>quarter</type>
        <stem>up</stem>
        <lyric number="2" default-x="6.5" default-y="-68.22" relative-x="-2.2" relative-y="-49.69">
          <syllabic>single</syllabic>
          <text>Fuss</text>
          </lyric>
        </note>
      <note default-x="227.87" default-y="-40">
        <pitch>
          <step>E</step>
          <octave>4</octave>
          </pitch>
        <duration>4</duration>
        <voice>1</voice>
        <type>quarter</type>
        <stem>up</stem>
        <lyric number="2" default-x="6.5" default-y="-68.22" relative-x="-2.2" relative-y="-49.69">
          <syllabic>begin</syllabic>
          <text>ge</text>
          </lyric>
        </note>
      <note default-x="279.53" default-y="-40">
        <pitch>
          <step>E</step>
          <octave>4</octave>
          </pitch>
        <duration>4</duration>
        <voice>1</voice>
        <type>quarter</type>
        <stem>up</stem>
        <lyric number="2" default-x="6.5" default-y="-68.22" relative-x="-2.2" relative-y="-49.69">
          <syllabic>end</syllabic>
          <text>hen</text>
          </lyric>
        </note>
      <backup>
        <duration>16</duration>
        </backup>
      <note default-x="21.25" default-y="-45">
        <pitch>
          <step>D</step>
          <octave>4</octave>
          </pitch>
        <duration>2</duration>
        <voice>2</voice>
        <type>eighth</type>
        <stem>down</stem>
        <beam number="1">begin</beam>
        </note>
      <note default-x="72.91" default-y="-50">
        <pitch>
          <step>C</step>
          <alter>1</alter>
          <octave>4</octave>
          </pitch>
        <duration>2</duration>
        <voice>2</voice>
        <type>eighth</type>
        <accidental>sharp</accidental>
        <stem>down</stem>
        <beam number="1">end</beam>
        </note>
      <note default-x="124.56" default-y="-45">
        <pitch>
          <step>D</step>
          <octave>4</octave>
          </pitch>
        <duration>4</duration>
        <voice>2</voice>
        <type>quarter</type>
        <stem>down</stem>
        </note>
      <note default-x="239.77" default-y="-45">
        <pitch>
          <step>D</step>
          <octave>4</octave>
          </pitch>
        <duration>4</duration>
        <voice>2</voice>
        <type>quarter</type>
        <stem>down</stem>
        </note>
      <note default-x="279.53" default-y="-50">
        <pitch>
          <step>C</step>
          <alter>1</alter>
          <octave>4</octave>
          </pitch>
        <duration>4</duration>
        <voice>2</voice>
        <type>quarter</type>
        <accidental cautionary="yes" parentheses="no">sharp</accidental>
        <stem>down</stem>
        </note>
      </measure>
    <measure number="12" width="90.81">
      <note default-x="24.85" default-y="-45">
        <pitch>
          <step>D</step>
          <octave>4</octave>
          </pitch>
        <duration>12</duration>
        <voice>1</voice>
        <type>half</type>
        <dot default-x="41.35" default-y="-45"/>
        <stem>up</stem>
        <notations>
          <fermata type="upright" relative-y="10"/>
          </notations>
        <lyric number="2" default-x="8.85" default-y="-68.22" relative-x="-0.63" relative-y="-49.69">
          <syllabic>single</syllabic>
          <text>kann.</text>
          </lyric>
        </note>
      <backup>
        <duration>12</duration>
        </backup>
      <note default-x="24.85" default-y="-60">
        <pitch>
          <step>A</step>
          <octave>3</octave>
          </pitch>
        <duration>12</duration>
        <voice>2</voice>
        <type>half</type>
        <dot default-x="41.35" default-y="-65"/>
        <stem>down</stem>
        </note>
      <barline location="right">
        <bar-style>light-heavy</bar-style>
        </barline>
      </measure>
    </part>
  <part id="P2">
    <measure number="0" implicit="yes" width="222.76">
      <print>
        <staff-layout number="1">
          <staff-distance>161.1</staff-distance>
          </staff-layout>
        </print>
      <attributes>
        <divisions>4</divisions>
        <key>
          <fifths>-1</fifths>
          </key>
        <time symbol="common">
          <beats>4</beats>
          <beat-type>4</beat-type>
          </time>
        <clef>
          <sign>F</sign>
          <line>4</line>
          </clef>
        </attributes>
      <note default-x="101.39" default-y="-201.1">
        <pitch>
          <step>A</step>
          <octave>3</octave>
          </pitch>
        <duration>2</duration>
        <voice>1</voice>
        <type>eighth</type>
        <stem>up</stem>
        <beam number="1">begin</beam>
        </note>
      <note default-x="161.18" default-y="-206.1">
        <pitch>
          <step>G</step>
          <octave>3</octave>
          </pitch>
        <duration>2</duration>
        <voice>1</voice>
        <type>eighth</type>
        <stem>up</stem>
        <beam number="1">end</beam>
        </note>
      <backup>
        <duration>4</duration>
        </backup>
      <note default-x="101.39" default-y="-211.1">
        <pitch>
          <step>F</step>
          <octave>3</octave>
          </pitch>
        <duration>2</duration>
        <voice>2</voice>
        <type>eighth</type>
        <stem>down</stem>
        <beam number="1">begin</beam>
        </note>
      <note default-x="161.18" default-y="-216.1">
        <pitch>
          <step>E</step>
          <octave>3</octave>
          </pitch>
        <duration>2</duration>
        <voice>2</voice>
        <type>eighth</type>
        <stem>down</stem>
        <beam number="1">end</beam>
        </note>
      </measure>
    <measure number="1" width="410.16">
      <note default-x="19.76" default-y="-201.1">
        <pitch>
          <step>A</step>
          <octave>3</octave>
          </pitch>
        <duration>4</duration>
        <voice>1</voice>
        <type>quarter</type>
        <stem>up</stem>
        </note>
      <note default-x="79.54" default-y="-206.1">
        <pitch>
          <step>G</step>
          <octave>3</octave>
          </pitch>
        <duration>4</duration>
        <voice>1</voice>
        <type>quarter</type>
        <stem>up</stem>
        </note>
      <note default-x="169.22" default-y="-211.1">
        <pitch>
          <step>F</step>
          <octave>3</octave>
          </pitch>
        <duration>4</duration>
        <voice>1</voice>
        <type>quarter</type>
        <stem>up</stem>
        </note>
      <note default-x="288.79" default-y="-211.1">
        <pitch>
          <step>F</step>
          <octave>3</octave>
          </pitch>
        <duration>2</duration>
        <voice>1</voice>
        <type>eighth</type>
        <stem>up</stem>
        <beam number="1">begin</beam>
        </note>
      <note default-x="348.57" default-y="-216.1">
        <pitch>
          <step>E</step>
          <octave>3</octave>
          </pitch>
        <duration>2</duration>
        <voice>1</voice>
        <type>eighth</type>
        <stem>up</stem>
        <beam number="1">end</beam>
        </note>
      <backup>
        <duration>16</duration>
        </backup>
      <note default-x="19.76" default-y="-221.1">
        <pitch>
          <step>D</step>
          <octave>3</octave>
          </pitch>
        <duration>6</duration>
        <voice>2</voice>
        <type>quarter</type>
        <dot default-x="36.25" default-y="-226.1"/>
        <stem>down</stem>
        </note>
      <note default-x="109.43" default-y="-226.1">
        <pitch>
          <step>C</step>
          <alter>1</alter>
          <octave>3</octave>
          </pitch>
        <duration>2</duration>
        <voice>2</voice>
        <type>eighth</type>
        <accidental>sharp</accidental>
        <stem>down</stem>
        </note>
      <note default-x="169.22" default-y="-221.1">
        <pitch>
          <step>D</step>
          <octave>3</octave>
          </pitch>
        <duration>2</duration>
        <voice>2</voice>
        <type>eighth</type>
        <stem>down</stem>
        <beam number="1">begin</beam>
        </note>
      <note default-x="229" default-y="-226.1">
        <pitch>
          <step>C</step>
          <octave>3</octave>
          </pitch>
        <duration>2</duration>
        <voice>2</voice>
        <type>eighth</type>
        <accidental>natural</accidental>
        <stem>down</stem>
        <beam number="1">end</beam>
        </note>
      <note default-x="288.79" default-y="-231.1">
        <pitch>
          <step>B</step>
          <alter>-1</alter>
          <octave>2</octave>
          </pitch>
        <duration>2</duration>
        <voice>2</voice>
        <type>eighth</type>
        <stem>down</stem>
        <beam number="1">begin</beam>
        </note>
      <note default-x="348.57" default-y="-226.1">
        <pitch>
          <step>C</step>
          <octave>3</octave>
          </pitch>
        <duration>2</duration>
        <voice>2</voice>
        <type>eighth</type>
        <stem>down</stem>
        <beam number="1">end</beam>
        </note>
      </measure>
    <measure number="2" width="197.62">
      <note default-x="16.46" default-y="-211.1">
        <pitch>
          <step>F</step>
          <octave>3</octave>
          </pitch>
        <duration>8</duration>
        <voice>1</voice>
        <type>half</type>
        <stem>up</stem>
        </note>
      <note default-x="76.25" default-y="-211.1">
        <pitch>
          <step>F</step>
          <octave>3</octave>
          </pitch>
        <duration>4</duration>
        <voice>1</voice>
        <type>quarter</type>
        <stem>up</stem>
        </note>
      <note default-x="136.03" default-y="-206.1">
        <pitch>
          <step>G</step>
          <octave>3</octave>
          </pitch>
        <duration>4</duration>
        <voice>1</voice>
        <type>quarter</type>
        <stem>up</stem>
        </note>
      <backup>
        <duration>16</duration>
        </backup>
      <note default-x="16.46" default-y="-246.1">
        <pitch>
          <step>F</step>
          <octave>2</octave>
          </pitch>
        <duration>8</duration>
        <voice>2</voice>
        <type>half</type>
        <stem>down</stem>
        </note>
      <note default-x="76.25" default-y="-246.1">
        <pitch>
          <step>F</step>
          <octave>2</octave>
          </pitch>
        <duration>4</duration>
        <voice>2</voice>
        <type>quarter</type>
        <stem>down</stem>
        </note>
      <note default-x="136.03" default-y="-216.1">
        <pitch>
          <step>E</step>
          <octave>3</octave>
          </pitch>
        <duration>4</duration>
        <voice>2</voice>
        <type>quarter</type>
        <stem>down</stem>
        </note>
      </measure>
    <measure number="3" width="317.42">
      <note default-x="16.7" default-y="-206.1">
        <pitch>
          <step>G</step>
          <alter>1</alter>
          <octave>3</octave>
          </pitch>
        <duration>4</duration>
        <voice>1</voice>
        <type>quarter</type>
        <accidental>sharp</accidental>
        <stem>up</stem>
        </note>
      <note default-x="76.48" default-y="-191.1">
        <pitch>
          <step>C</step>
          <octave>4</octave>
          </pitch>
        <duration>4</duration>
        <voice>1</voice>
        <type>quarter</type>
        <stem>up</stem>
        </note>
      <note default-x="136.27" default-y="-196.1">
        <pitch>
          <step>B</step>
          <octave>3</octave>
          </pitch>
        <duration>2</duration>
        <voice>1</voice>
        <type>eighth</type>
        <accidental>natural</accidental>
        <stem>up</stem>
        <beam number="1">begin</beam>
        </note>
      <note default-x="196.05" default-y="-191.1">
        <pitch>
          <step>C</step>
          <octave>4</octave>
          </pitch>
        <duration>2</duration>
        <voice>1</voice>
        <type>eighth</type>
        <stem>up</stem>
        <beam number="1">end</beam>
        </note>
      <note default-x="255.84" default-y="-186.1">
        <pitch>
          <step>D</step>
          <octave>4</octave>
          </pitch>
        <duration>4</duration>
        <voice>1</voice>
        <type>quarter</type>
        <accidental cautionary="yes" parentheses="no">natural</accidental>
        <stem>up</stem>
        </note>
      <backup>
        <duration>16</duration>
        </backup>
      <note default-x="16.7" default-y="-221.1">
        <pitch>
          <step>D</step>
          <octave>3</octave>
          </pitch>
        <duration>4</duration>
        <voice>2</voice>
        <type>quarter</type>
        <stem>down</stem>
        </note>
      <note default-x="76.48" default-y="-221.1">
        <pitch>
          <step>D</step>
          <alter>1</alter>
          <octave>3</octave>
          </pitch>
        <duration>4</duration>
        <voice>2</voice>
        <type>quarter</type>
        <accidental>sharp</accidental>
        <stem>down</stem>
        </note>
      <note default-x="136.27" default-y="-216.1">
        <pitch>
          <step>E</step>
          <octave>3</octave>
          </pitch>
        <duration>4</duration>
        <voice>2</voice>
        <type>quarter</type>
        <stem>down</stem>
        </note>
      <note default-x="255.84" default-y="-251.1">
        <pitch>
          <step>E</step>
          <octave>2</octave>
          </pitch>
        <duration>4</duration>
        <voice>2</voice>
        <type>quarter</type>
        <stem>down</stem>
        </note>
      </measure>
    <measure number="4" width="119.11">
      <note default-x="33.87" default-y="-191.1">
        <pitch>
          <step>C</step>
          <octave>4</octave>
          </pitch>
        <duration>12</duration>
        <voice>1</voice>
        <type>half</type>
        <dot default-x="50.36" default-y="-186.1"/>
        <stem>up</stem>
        </note>
      <backup>
        <duration>12</duration>
        </backup>
      <note default-x="33.87" default-y="-236.1">
        <pitch>
          <step>A</step>
          <octave>2</octave>
          </pitch>
        <duration>12</duration>
        <voice>2</voice>
        <type>half</type>
        <dot default-x="50.36" default-y="-236.1"/>
        <stem>down</stem>
        </note>
      <barline location="right">
        <bar-style>light-heavy</bar-style>
        <repeat direction="backward"/>
        </barline>
      </measure>
    <measure number="X1" implicit="yes" width="168.25">
      <print new-system="yes">
        <staff-layout number="1">
          <staff-distance>159.41</staff-distance>
          </staff-layout>
        </print>
      <note default-x="77.87" default-y="-189.41">
        <pitch>
          <step>C</step>
          <octave>4</octave>
          </pitch>
        <duration>4</duration>
        <voice>1</voice>
        <type>quarter</type>
        <stem>up</stem>
        </note>
      <backup>
        <duration>4</duration>
        </backup>
      <note default-x="77.87" default-y="-199.41">
        <pitch>
          <step>A</step>
          <octave>3</octave>
          </pitch>
        <duration>4</duration>
        <voice>2</voice>
        <type>quarter</type>
        <stem>down</stem>
        </note>
      </measure>
    <measure number="5" width="341.16">
      <note default-x="24.99" default-y="-184.41">
        <pitch>
          <step>D</step>
          <octave>4</octave>
          </pitch>
        <duration>4</duration>
        <voice>1</voice>
        <type>quarter</type>
        <stem>up</stem>
        </note>
      <note default-x="69.28" default-y="-179.41">
        <pitch>
          <step>E</step>
          <octave>4</octave>
          </pitch>
        <duration>4</duration>
        <voice>1</voice>
        <type>quarter</type>
        <stem>up</stem>
        </note>
      <note default-x="157.85" default-y="-184.41">
        <pitch>
          <step>D</step>
          <octave>4</octave>
          </pitch>
        <duration>4</duration>
        <voice>1</voice>
        <type>quarter</type>
        <stem>up</stem>
        </note>
      <note default-x="250.79" default-y="-184.41">
        <pitch>
          <step>D</step>
          <octave>4</octave>
          </pitch>
        <duration>4</duration>
        <voice>1</voice>
        <type>quarter</type>
        <stem>up</stem>
        </note>
      <backup>
        <duration>16</duration>
        </backup>
      <note default-x="24.99" default-y="-199.41">
        <pitch>
          <step>A</step>
          <octave>3</octave>
          </pitch>
        <duration>4</duration>
        <voice>2</voice>
        <type>quarter</type>
        <stem>down</stem>
        </note>
      <note default-x="69.28" default-y="-199.41">
        <pitch>
          <step>A</step>
          <octave>3</octave>
          </pitch>
        <duration>2</duration>
        <voice>2</voice>
        <type>eighth</type>
        <stem>down</stem>
        <beam number="1">begin</beam>
        </note>
      <note default-x="113.57" default-y="-204.41">
        <pitch>
          <step>G</step>
          <octave>3</octave>
          </pitch>
        <duration>2</duration>
        <voice>2</voice>
        <type>eighth</type>
        <stem>down</stem>
        <beam number="1">end</beam>
        </note>
      <note default-x="157.85" default-y="-209.41">
        <pitch>
          <step>F</step>
          <alter>1</alter>
          <octave>3</octave>
          </pitch>
        <duration>4</duration>
        <voice>2</voice>
        <type>quarter</type>
        <accidental>sharp</accidental>
        <stem>down</stem>
        </note>
      <note default-x="250.79" default-y="-204.41">
        <pitch>
          <step>G</step>
          <octave>3</octave>
          </pitch>
        <duration>2</duration>
        <voice>2</voice>
        <type>eighth</type>
        <stem>down</stem>
        <beam number="1">begin</beam>
        </note>
      <note default-x="295.08" default-y="-209.41">
        <pitch>
          <step>F</step>
          <octave>3</octave>
          </pitch>
        <duration>2</duration>
        <voice>2</voice>
        <type>eighth</type>
        <accidental>natural</accidental>
        <stem>down</stem>
        <beam number="1">end</beam>
        </note>
      </measure>
    <measure number="6" width="323.81">
      <note default-x="12" default-y="-189.41">
        <pitch>
          <step>C</step>
          <octave>4</octave>
          </pitch>
        <duration>2</duration>
        <voice>1</voice>
        <type>eighth</type>
        <stem>up</stem>
        <beam number="1">begin</beam>
        <notations>
          <slur type="start" number="1"/>
          </notations>
        </note>
      <note default-x="56.29" default-y="-179.41">
        <pitch>
          <step>E</step>
          <octave>4</octave>
          </pitch>
        <duration>2</duration>
        <voice>1</voice>
        <type>eighth</type>
        <stem>up</stem>
        <beam number="1">continue</beam>
        </note>
      <note default-x="100.57" default-y="-184.41">
        <pitch>
          <step>D</step>
          <octave>4</octave>
          </pitch>
        <duration>2</duration>
        <voice>1</voice>
        <type>eighth</type>
        <stem>up</stem>
        <beam number="1">continue</beam>
        </note>
      <note default-x="144.86" default-y="-189.41">
        <pitch>
          <step>C</step>
          <octave>4</octave>
          </pitch>
        <duration>2</duration>
        <voice>1</voice>
        <type>eighth</type>
        <stem>up</stem>
        <beam number="1">end</beam>
        <notations>
          <slur type="stop" number="1"/>
          </notations>
        </note>
      <note default-x="189.15" default-y="-189.41">
        <pitch>
          <step>C</step>
          <octave>4</octave>
          </pitch>
        <duration>4</duration>
        <voice>1</voice>
        <type>quarter</type>
        <stem>up</stem>
        </note>
      <note default-x="233.44" default-y="-189.41">
        <pitch>
          <step>C</step>
          <octave>4</octave>
          </pitch>
        <duration>4</duration>
        <voice>1</voice>
        <type>quarter</type>
        <stem>up</stem>
        </note>
      <backup>
        <duration>16</duration>
        </backup>
      <note default-x="12" default-y="-214.41">
        <pitch>
          <step>E</step>
          <octave>3</octave>
          </pitch>
        <duration>2</duration>
        <voice>2</voice>
        <type>eighth</type>
        <stem>down</stem>
        <beam number="1">begin</beam>
        <notations>
          <slur type="start" number="1"/>
          </notations>
        </note>
      <note default-x="56.29" default-y="-224.41">
        <pitch>
          <step>C</step>
          <octave>3</octave>
          </pitch>
        <duration>2</duration>
        <voice>2</voice>
        <type>eighth</type>
        <stem>down</stem>
        <beam number="1">continue</beam>
        </note>
      <note default-x="100.57" default-y="-219.41">
        <pitch>
          <step>D</step>
          <octave>3</octave>
          </pitch>
        <duration>2</duration>
        <voice>2</voice>
        <type>eighth</type>
        <stem>down</stem>
        <beam number="1">continue</beam>
        </note>
      <note default-x="144.86" default-y="-214.41">
        <pitch>
          <step>E</step>
          <octave>3</octave>
          </pitch>
        <duration>2</duration>
        <voice>2</voice>
        <type>eighth</type>
        <stem>down</stem>
        <beam number="1">end</beam>
        <notations>
          <slur type="stop" number="1"/>
          </notations>
        </note>
      <note default-x="189.15" default-y="-209.41">
        <pitch>
          <step>F</step>
          <octave>3</octave>
          </pitch>
        <duration>4</duration>
        <voice>2</voice>
        <type>quarter</type>
        <stem>down</stem>
        </note>
      <note default-x="233.44" default-y="-244.41">
        <pitch>
          <step>F</step>
          <octave>2</octave>
          </pitch>
        <duration>4</duration>
        <voice>2</voice>
        <type>quarter</type>
        <stem>down</stem>
        </note>
      </measure>
    <measure number="7" width="269.55">
      <note default-x="14.67" default-y="-194.41">
        <pitch>
          <step>B</step>
          <alter>-1</alter>
          <octave>3</octave>
          </pitch>
        <duration>4</duration>
        <voice>1</voice>
        <type>quarter</type>
        <stem>up</stem>
        </note>
      <note default-x="58.95" default-y="-199.41">
        <pitch>
          <step>A</step>
          <alter>-1</alter>
          <octave>3</octave>
          </pitch>
        <duration>4</duration>
        <voice>1</voice>
        <type>quarter</type>
        <accidental>flat</accidental>
        <stem>up</stem>
        </note>
      <note default-x="107.02" default-y="-204.41">
        <pitch>
          <step>G</step>
          <octave>3</octave>
          </pitch>
        <duration>6</duration>
        <voice>1</voice>
        <type>quarter</type>
        <dot default-x="123.52" default-y="-204.41"/>
        <stem>up</stem>
        </note>
      <note default-x="179.17" default-y="-199.41">
        <pitch>
          <step>A</step>
          <octave>3</octave>
          </pitch>
        <duration>1</duration>
        <voice>1</voice>
        <type>16th</type>
        <accidental>natural</accidental>
        <stem>up</stem>
        <beam number="1">begin</beam>
        <beam number="2">begin</beam>
        </note>
      <note default-x="223.46" default-y="-194.41">
        <pitch>
          <step>B</step>
          <alter>-1</alter>
          <octave>3</octave>
          </pitch>
        <duration>1</duration>
        <voice>1</voice>
        <type>16th</type>
        <accidental cautionary="yes" parentheses="no">flat</accidental>
        <stem>up</stem>
        <beam number="1">end</beam>
        <beam number="2">end</beam>
        </note>
      <backup>
        <duration>16</duration>
        </backup>
      <note default-x="14.67" default-y="-229.41">
        <pitch>
          <step>B</step>
          <alter>-1</alter>
          <octave>2</octave>
          </pitch>
        <duration>4</duration>
        <voice>2</voice>
        <type>quarter</type>
        <stem>down</stem>
        </note>
      <note default-x="58.95" default-y="-229.41">
        <pitch>
          <step>B</step>
          <octave>2</octave>
          </pitch>
        <duration>4</duration>
        <voice>2</voice>
        <type>quarter</type>
        <accidental>natural</accidental>
        <stem>down</stem>
        </note>
      <note default-x="107.02" default-y="-224.41">
        <pitch>
          <step>C</step>
          <octave>3</octave>
          </pitch>
        <duration>4</duration>
        <voice>2</voice>
        <type>quarter</type>
        <stem>down</stem>
        </note>
      <note default-x="157.03" default-y="-259.41">
        <pitch>
          <step>C</step>
          <octave>2</octave>
          </pitch>
        <duration>4</duration>
        <voice>2</voice>
        <type>quarter</type>
        <stem>down</stem>
        </note>
      </measure>
    <measure number="8" width="164.29">
      <note default-x="25.79" default-y="-199.41">
        <pitch>
          <step>A</step>
          <octave>3</octave>
          </pitch>
        <duration>12</duration>
        <voice>1</voice>
        <type>half</type>
        <dot default-x="42.29" default-y="-194.41"/>
        <stem>up</stem>
        </note>
      <note default-x="73.92" default-y="-199.41">
        <pitch>
          <step>A</step>
          <octave>3</octave>
          </pitch>
        <duration>4</duration>
        <voice>1</voice>
        <type>quarter</type>
        <stem>up</stem>
        </note>
      <backup>
        <duration>16</duration>
        </backup>
      <note default-x="25.79" default-y="-244.41">
        <pitch>
          <step>F</step>
          <octave>2</octave>
          </pitch>
        <duration>12</duration>
        <voice>2</voice>
        <type>half</type>
        <dot default-x="42.29" default-y="-244.41"/>
        <stem>down</stem>
        </note>
      <note default-x="73.92" default-y="-224.41">
        <pitch>
          <step>C</step>
          <alter>1</alter>
          <octave>3</octave>
          </pitch>
        <duration>4</duration>
        <voice>2</voice>
        <type>quarter</type>
        <accidental>sharp</accidental>
        <stem>down</stem>
        </note>
      </measure>
    <measure number="9" width="492.91">
      <print new-system="yes">
        <staff-layout number="1">
          <staff-distance>143.41</staff-distance>
          </staff-layout>
        </print>
      <note default-x="77.87" default-y="-183.41">
        <pitch>
          <step>A</step>
          <octave>3</octave>
          </pitch>
        <duration>4</duration>
        <voice>1</voice>
        <type>quarter</type>
        <stem>up</stem>
        </note>
      <note default-x="181.18" default-y="-168.41">
        <pitch>
          <step>D</step>
          <octave>4</octave>
          </pitch>
        <duration>2</duration>
        <voice>1</voice>
        <type>eighth</type>
        <stem>up</stem>
        <beam number="1">begin</beam>
        </note>
      <note default-x="232.84" default-y="-173.41">
        <pitch>
          <step>C</step>
          <octave>4</octave>
          </pitch>
        <duration>2</duration>
        <voice>1</voice>
        <type>eighth</type>
        <stem>up</stem>
        <beam number="1">end</beam>
        </note>
      <note default-x="284.49" default-y="-173.41">
        <pitch>
          <step>C</step>
          <octave>4</octave>
          </pitch>
        <duration>4</duration>
        <voice>1</voice>
        <type>quarter</type>
        <stem>up</stem>
        </note>
      <note default-x="387.8" default-y="-168.41">
        <pitch>
          <step>D</step>
          <octave>4</octave>
          </pitch>
        <duration>2</duration>
        <voice>1</voice>
        <type>eighth</type>
        <stem>up</stem>
        <beam number="1">begin</beam>
        </note>
      <note default-x="439.46" default-y="-163.41">
        <pitch>
          <step>E</step>
          <octave>4</octave>
          </pitch>
        <duration>2</duration>
        <voice>1</voice>
        <type>eighth</type>
        <stem>up</stem>
        <beam number="1">end</beam>
        </note>
      <backup>
        <duration>16</duration>
        </backup>
      <note default-x="77.87" default-y="-203.41">
        <pitch>
          <step>D</step>
          <octave>3</octave>
          </pitch>
        <duration>2</duration>
        <voice>2</voice>
        <type>eighth</type>
        <stem>down</stem>
        <beam number="1">begin</beam>
        </note>
      <note default-x="129.53" default-y="-208.41">
        <pitch>
          <step>C</step>
          <octave>3</octave>
          </pitch>
        <duration>2</duration>
        <voice>2</voice>
        <type>eighth</type>
        <accidental cautionary="yes" parentheses="no">natural</accidental>
        <stem>down</stem>
        <beam number="1">end</beam>
        </note>
      <note default-x="181.18" default-y="-213.41">
        <pitch>
          <step>B</step>
          <alter>-1</alter>
          <octave>2</octave>
          </pitch>
        <duration>2</duration>
        <voice>2</voice>
        <type>eighth</type>
        <accidental cautionary="yes" parentheses="no">flat</accidental>
        <stem>down</stem>
        <beam number="1">begin</beam>
        </note>
      <note default-x="232.84" default-y="-208.41">
        <pitch>
          <step>C</step>
          <octave>3</octave>
          </pitch>
        <duration>2</duration>
        <voice>2</voice>
        <type>eighth</type>
        <stem>down</stem>
        <beam number="1">end</beam>
        </note>
      <note default-x="284.49" default-y="-228.41">
        <pitch>
          <step>F</step>
          <octave>2</octave>
          </pitch>
        <duration>2</duration>
        <voice>2</voice>
        <type>eighth</type>
        <stem>down</stem>
        <beam number="1">begin</beam>
        </note>
      <note default-x="336.15" default-y="-218.41">
        <pitch>
          <step>A</step>
          <octave>2</octave>
          </pitch>
        <duration>2</duration>
        <voice>2</voice>
        <type>eighth</type>
        <stem>down</stem>
        <beam number="1">end</beam>
        </note>
      <note default-x="387.8" default-y="-213.41">
        <pitch>
          <step>B</step>
          <octave>2</octave>
          </pitch>
        <duration>2</duration>
        <voice>2</voice>
        <type>eighth</type>
        <accidental>natural</accidental>
        <stem>down</stem>
        <beam number="1">begin</beam>
        </note>
      <note default-x="439.46" default-y="-208.41">
        <pitch>
          <step>C</step>
          <alter>1</alter>
          <octave>3</octave>
          </pitch>
        <duration>2</duration>
        <voice>2</voice>
        <type>eighth</type>
        <accidental>sharp</accidental>
        <stem>down</stem>
        <beam number="1">end</beam>
        </note>
      </measure>
    <measure number="10" width="324.53">
      <note default-x="12.8" default-y="-183.41">
        <pitch>
          <step>A</step>
          <octave>3</octave>
          </pitch>
        <duration>2</duration>
        <voice>1</voice>
        <type>eighth</type>
        <stem>up</stem>
        <beam number="1">begin</beam>
        <notations>
          <slur type="start" number="1"/>
          </notations>
        </note>
      <note default-x="64.46" default-y="-188.41">
        <pitch>
          <step>G</step>
          <alter>1</alter>
          <octave>3</octave>
          </pitch>
        <duration>2</duration>
        <voice>1</voice>
        <type>eighth</type>
        <accidental>sharp</accidental>
        <stem>up</stem>
        <beam number="1">continue</beam>
        </note>
      <note default-x="116.11" default-y="-183.41">
        <pitch>
          <step>A</step>
          <octave>3</octave>
          </pitch>
        <duration>2</duration>
        <voice>1</voice>
        <type>eighth</type>
        <stem>up</stem>
        <beam number="1">continue</beam>
        </note>
      <note default-x="167.77" default-y="-178.41">
        <pitch>
          <step>B</step>
          <octave>3</octave>
          </pitch>
        <duration>2</duration>
        <voice>1</voice>
        <type>eighth</type>
        <accidental>natural</accidental>
        <stem>up</stem>
        <beam number="1">end</beam>
        <notations>
          <slur type="stop" number="1"/>
          </notations>
        </note>
      <note default-x="219.42" default-y="-183.41">
        <pitch>
          <step>A</step>
          <octave>3</octave>
          </pitch>
        <duration>4</duration>
        <voice>1</voice>
        <type>quarter</type>
        <stem>up</stem>
        </note>
      <note default-x="271.08" default-y="-183.41">
        <pitch>
          <step>A</step>
          <octave>3</octave>
          </pitch>
        <duration>4</duration>
        <voice>1</voice>
        <type>quarter</type>
        <stem>up</stem>
        </note>
      <backup>
        <duration>16</duration>
        </backup>
      <note default-x="12.8" default-y="-203.41">
        <pitch>
          <step>D</step>
          <octave>3</octave>
          </pitch>
        <duration>2</duration>
        <voice>2</voice>
        <type>eighth</type>
        <stem>down</stem>
        <beam number="1">begin</beam>
        <notations>
          <slur type="start" number="1"/>
          </notations>
        </note>
      <note default-x="64.46" default-y="-213.41">
        <pitch>
          <step>B</step>
          <alter>-1</alter>
          <octave>2</octave>
          </pitch>
        <duration>2</duration>
        <voice>2</voice>
        <type>eighth</type>
        <accidental cautionary="yes" parentheses="no">flat</accidental>
        <stem>down</stem>
        <beam number="1">continue</beam>
        </note>
      <note default-x="116.11" default-y="-218.41">
        <pitch>
          <step>A</step>
          <octave>2</octave>
          </pitch>
        <duration>2</duration>
        <voice>2</voice>
        <type>eighth</type>
        <stem>down</stem>
        <beam number="1">continue</beam>
        </note>
      <note default-x="167.77" default-y="-223.41">
        <pitch>
          <step>G</step>
          <alter>1</alter>
          <octave>2</octave>
          </pitch>
        <duration>2</duration>
        <voice>2</voice>
        <type>eighth</type>
        <accidental>sharp</accidental>
        <stem>down</stem>
        <beam number="1">end</beam>
        <notations>
          <slur type="stop" number="1"/>
          </notations>
        </note>
      <note default-x="219.42" default-y="-218.41">
        <pitch>
          <step>A</step>
          <octave>2</octave>
          </pitch>
        <duration>4</duration>
        <voice>2</voice>
        <type>quarter</type>
        <stem>down</stem>
        </note>
      <note default-x="271.08" default-y="-203.41">
        <pitch>
          <step>D</step>
          <octave>3</octave>
          </pitch>
        <duration>4</duration>
        <voice>2</voice>
        <type>quarter</type>
        <stem>down</stem>
        </note>
      </measure>
    <measure number="11" width="358.81">
      <note default-x="21.25" default-y="-188.41">
        <pitch>
          <step>G</step>
          <octave>3</octave>
          </pitch>
        <duration>4</duration>
        <voice>1</voice>
        <type>quarter</type>
        <accidental cautionary="yes" parentheses="no">natural</accidental>
        <stem>up</stem>
        </note>
      <note default-x="124.56" default-y="-183.41">
        <pitch>
          <step>A</step>
          <octave>3</octave>
          </pitch>
        <duration>4</duration>
        <voice>1</voice>
        <type>quarter</type>
        <stem>up</stem>
        </note>
      <note default-x="241.87" default-y="-183.41">
        <pitch>
          <step>A</step>
          <octave>3</octave>
          </pitch>
        <duration>6</duration>
        <voice>1</voice>
        <type>quarter</type>
        <dot default-x="258.36" default-y="-178.41"/>
        <stem>up</stem>
        </note>
      <note default-x="305.35" default-y="-188.41">
        <pitch>
          <step>G</step>
          <octave>3</octave>
          </pitch>
        <duration>2</duration>
        <voice>1</voice>
        <type>eighth</type>
        <stem>up</stem>
        </note>
      <backup>
        <duration>16</duration>
        </backup>
      <note default-x="21.25" default-y="-198.41">
        <pitch>
          <step>E</step>
          <octave>3</octave>
          </pitch>
        <duration>4</duration>
        <voice>2</voice>
        <type>quarter</type>
        <stem>down</stem>
        </note>
      <note default-x="124.56" default-y="-193.41">
        <pitch>
          <step>F</step>
          <octave>3</octave>
          </pitch>
        <duration>2</duration>
        <voice>2</voice>
        <type>eighth</type>
        <stem>down</stem>
        <beam number="1">begin</beam>
        </note>
      <note default-x="176.22" default-y="-188.41">
        <pitch>
          <step>G</step>
          <octave>3</octave>
          </pitch>
        <duration>2</duration>
        <voice>2</voice>
        <type>eighth</type>
        <stem>down</stem>
        <beam number="1">end</beam>
        </note>
      <note default-x="227.87" default-y="-183.41">
        <pitch>
          <step>A</step>
          <octave>3</octave>
          </pitch>
        <duration>4</duration>
        <voice>2</voice>
        <type>quarter</type>
        <stem>down</stem>
        </note>
      <note default-x="279.53" default-y="-218.41">
        <pitch>
          <step>A</step>
          <octave>2</octave>
          </pitch>
        <duration>4</duration>
        <voice>2</voice>
        <type>quarter</type>
        <stem>down</stem>
        </note>
      </measure>
    <measure number="12" width="90.81">
      <note default-x="24.85" default-y="-193.41">
        <pitch>
          <step>F</step>
          <octave>3</octave>
          </pitch>
        <duration>12</duration>
        <voice>1</voice>
        <type>half</type>
        <dot default-x="41.35" default-y="-188.41"/>
        <stem>up</stem>
        </note>
      <backup>
        <duration>12</duration>
        </backup>
      <note default-x="24.85" default-y="-203.41">
        <pitch>
          <step>D</step>
          <octave>3</octave>
          </pitch>
        <duration>12</duration>
        <voice>2</voice>
        <type>half</type>
        <dot default-x="41.35" default-y="-208.41"/>
        <stem>down</stem>
        </note>
      <barline location="right">
        <bar-style>light-heavy</bar-style>
        </barline>
      </measure>
    </part>
  </score-partwise>
