<?xml version="1.0" encoding="UTF-8"?>
<!DOCTYPE score-partwise PUBLIC "-//Recordare//DTD MusicXML 4.0 Partwise//EN" "http://www.musicxml.org/dtds/partwise.dtd">
<score-partwise version="4.0">
  <work>
    <work-title>361. Bin ich gleich von dir gewichen</work-title>
    </work>
  <identification>
    <creator type="composer">J.S. Bach (Orig. Joh. Schop 1642)</creator>
    <creator type="lyricist">Joh. Rist 1642</creator>
    <encoding>
      <software>MuseScore 4.4.4</software>
      <encoding-date>2025-02-16</encoding-date>
      <supports element="accidental" type="yes"/>
      <supports element="beam" type="yes"/>
      <supports element="print" attribute="new-page" type="yes" value="yes"/>
      <supports element="print" attribute="new-system" type="yes" value="yes"/>
      <supports element="stem" type="yes"/>
      </encoding>
    <source>https://musescore.com/user/1685616/scores/5373087</source>
    </identification>
  <defaults>
    <scaling>
      <millimeters>7.16</millimeters>
      <tenths>40</tenths>
      </scaling>
    <page-layout>
      <page-height>1658.82</page-height>
      <page-width>1173.52</page-width>
      <page-margins type="even">
        <left-margin>55.866</left-margin>
        <right-margin>55.866</right-margin>
        <top-margin>55.866</top-margin>
        <bottom-margin>55.866</bottom-margin>
        </page-margins>
      <page-margins type="odd">
        <left-margin>55.866</left-margin>
        <right-margin>55.866</right-margin>
        <top-margin>55.866</top-margin>
        <bottom-margin>55.866</bottom-margin>
        </page-margins>
      </page-layout>
    <appearance>
      <line-width type="light barline">1.8</line-width>
      <line-width type="heavy barline">5.5</line-width>
      <line-width type="beam">5</line-width>
      <line-width type="bracket">4.4</line-width>
      <line-width type="dashes">1.5</line-width>
      <line-width type="enclosure">0</line-width>
      <line-width type="ending">1.1</line-width>
      <line-width type="extend">1</line-width>
      <line-width type="leger">1.6</line-width>
      <line-width type="pedal">1.1</line-width>
      <line-width type="octave shift">1.1</line-width>
      <line-width type="slur middle">2.1</line-width>
      <line-width type="slur tip">0.7</line-width>
      <line-width type="staff">1.1</line-width>
      <line-width type="stem">1.1</line-width>
      <line-width type="tie middle">2.1</line-width>
      <line-width type="tie tip">0.7</line-width>
      <line-width type="tuplet bracket">1</line-width>
      <line-width type="wedge">1.2</line-width>
      <note-size type="cue">70</note-size>
      <note-size type="grace">70</note-size>
      <note-size type="grace-cue">49</note-size>
      </appearance>
    <music-font font-family="Leland"/>
    <word-font font-family="Edwin" font-size="10"/>
    <lyric-font font-family="Edwin" font-size="10"/>
    </defaults>
  <credit page="1">
    <credit-type>title</credit-type>
    <credit-words default-x="586.759156" default-y="1601.775607" justify="center" valign="top" font-size="19">365. Bin ich gleich von dir gewichen</credit-words>
    </credit>
  <credit page="1">
    <credit-type>subtitle</credit-type>
    <credit-words default-x="586.759156" default-y="1547.086785" justify="center" valign="top" font-size="11">(Cant. 154. Mein liebster Jesu ist verloren. B.A. 32. 65, BWV 154/3)</credit-words>
    </credit>
  <credit page="1">
    <credit-type>composer</credit-type>
    <credit-words default-x="1117.652361" default-y="1490.209707" justify="right" valign="bottom">J.S. Bach
</credit-words>
    <credit-words>Joh. Schop 1642</credit-words>
    </credit>
  <credit page="1">
    <credit-type>lyricist</credit-type>
    <credit-words default-x="55.865952" default-y="1490.209707" justify="left" valign="bottom" font-size="11">Mart. Jahn (Janus) 1671</credit-words>
    </credit>
  <part-list>
    <part-group type="start" number="1">
      <group-symbol>bracket</group-symbol>
      </part-group>
    <score-part id="P1">
      <part-name print-object="no">Soprano/Alto</part-name>
      <score-instrument id="P1-I1">
        <instrument-name>Soprano/Alto</instrument-name>
        <instrument-sound>voice.vocals</instrument-sound>
        </score-instrument>
      <midi-device id="P1-I1" port="1"></midi-device>
      <midi-instrument id="P1-I1">
        <midi-channel>1</midi-channel>
        <midi-program>53</midi-program>
        <volume>85.8268</volume>
        <pan>-14</pan>
        </midi-instrument>
      </score-part>
    <score-part id="P2">
      <part-name print-object="no">Tenor/Bass</part-name>
      <score-instrument id="P2-I1">
        <instrument-name>Tenor/Bass</instrument-name>
        <instrument-sound>voice.vocals</instrument-sound>
        </score-instrument>
      <midi-device id="P2-I1" port="1"></midi-device>
      <midi-instrument id="P2-I1">
        <midi-channel>2</midi-channel>
        <midi-program>53</midi-program>
        <volume>79.5276</volume>
        <pan>13</pan>
        </midi-instrument>
      </score-part>
    <part-group type="stop" number="1"/>
    </part-list>
  <part id="P1">
    <measure number="1" width="334.42">
      <print>
        <system-layout>
          <system-margins>
            <left-margin>0</left-margin>
            <right-margin>0</right-margin>
            </system-margins>
          <top-system-distance>182.74</top-system-distance>
          </system-layout>
        </print>
      <attributes>
        <divisions>2</divisions>
        <key>
          <fifths>3</fifths>
          </key>
        <time symbol="common">
          <beats>4</beats>
          <beat-type>4</beat-type>
          </time>
        <clef>
          <sign>G</sign>
          <line>2</line>
          </clef>
        </attributes>
      <note default-x="124.94" default-y="-15">
        <pitch>
          <step>C</step>
          <alter>1</alter>
          <octave>5</octave>
          </pitch>
        <duration>2</duration>
        <voice>1</voice>
        <type>quarter</type>
        <stem>up</stem>
        <lyric number="1" default-x="6.5" default-y="-40" relative-y="-50">
          <syllabic>begin</syllabic>
          <text>Je</text>
          </lyric>
        <lyric number="2" default-x="6.5" default-y="-63.65" relative-y="-50">
          <syllabic>begin</syllabic>
          <text>Je</text>
          </lyric>
        </note>
      <note default-x="172.87" default-y="-10">
        <pitch>
          <step>D</step>
          <octave>5</octave>
          </pitch>
        <duration>2</duration>
        <voice>1</voice>
        <type>quarter</type>
        <stem>up</stem>
        <lyric number="1" default-x="9.26" default-y="-40" relative-y="-50">
          <syllabic>end</syllabic>
          <text>su,</text>
          </lyric>
        <lyric number="2" default-x="9.26" default-y="-63.65" relative-y="-50">
          <syllabic>end</syllabic>
          <text>su,</text>
          </lyric>
        </note>
      <note default-x="220.79" default-y="-5">
        <pitch>
          <step>E</step>
          <octave>5</octave>
          </pitch>
        <duration>2</duration>
        <voice>1</voice>
        <type>quarter</type>
        <stem>up</stem>
        <lyric number="1" default-x="6.5" default-y="-40" relative-y="-50">
          <syllabic>single</syllabic>
          <text>mein</text>
          </lyric>
        <lyric number="2" default-x="6.5" default-y="-63.65" relative-y="-50">
          <syllabic>begin</syllabic>
          <text>star</text>
          </lyric>
        </note>
      <note default-x="284.69" default-y="-5">
        <pitch>
          <step>E</step>
          <octave>5</octave>
          </pitch>
        <duration>2</duration>
        <voice>1</voice>
        <type>quarter</type>
        <stem>up</stem>
        <lyric number="1" default-x="6.5" default-y="-40" relative-y="-50">
          <syllabic>single</syllabic>
          <text>Hort</text>
          </lyric>
        <lyric number="2" default-x="6.5" default-y="-63.65" relative-y="-50">
          <syllabic>end</syllabic>
          <text>ker</text>
          </lyric>
        </note>
      <backup>
        <duration>8</duration>
        </backup>
      <note default-x="124.94" default-y="-25">
        <pitch>
          <step>A</step>
          <octave>4</octave>
          </pitch>
        <duration>2</duration>
        <voice>2</voice>
        <type>quarter</type>
        <stem>down</stem>
        </note>
      <note default-x="172.87" default-y="-25">
        <pitch>
          <step>A</step>
          <octave>4</octave>
          </pitch>
        <duration>2</duration>
        <voice>2</voice>
        <type>quarter</type>
        <stem>down</stem>
        </note>
      <note default-x="220.79" default-y="-30">
        <pitch>
          <step>G</step>
          <alter>1</alter>
          <octave>4</octave>
          </pitch>
        <duration>2</duration>
        <voice>2</voice>
        <type>quarter</type>
        <stem>down</stem>
        </note>
      <note default-x="284.69" default-y="-25">
        <pitch>
          <step>A</step>
          <octave>4</octave>
          </pitch>
        <duration>2</duration>
        <voice>2</voice>
        <type>quarter</type>
        <stem>down</stem>
        </note>
      </measure>
    <measure number="2" width="252.79">
      <note default-x="27.34" default-y="-10">
        <pitch>
          <step>D</step>
          <octave>5</octave>
          </pitch>
        <duration>2</duration>
        <voice>1</voice>
        <type>quarter</type>
        <stem>up</stem>
        <lyric number="1" default-x="6.5" default-y="-40" relative-y="-50">
          <syllabic>single</syllabic>
          <text>und</text>
          </lyric>
        <lyric number="2" default-x="6.5" default-y="-63.65" relative-y="-50">
          <syllabic>begin</syllabic>
          <text>Schlan</text>
          </lyric>
        </note>
      <note default-x="91.24" default-y="-15">
        <pitch>
          <step>C</step>
          <alter>1</alter>
          <octave>5</octave>
          </pitch>
        <duration>2</duration>
        <voice>1</voice>
        <type>quarter</type>
        <stem>up</stem>
        <lyric number="1" default-x="6.5" default-y="-40" relative-y="-50">
          <syllabic>begin</syllabic>
          <text>Er</text>
          </lyric>
        <lyric number="2" default-x="6.5" default-y="-63.65" relative-y="-50">
          <syllabic>middle</syllabic>
          <text>gen</text>
          </lyric>
        </note>
      <note default-x="155.14" default-y="-20">
        <pitch>
          <step>B</step>
          <octave>4</octave>
          </pitch>
        <duration>2</duration>
        <voice>1</voice>
        <type>quarter</type>
        <stem>up</stem>
        <lyric number="1" default-x="6.5" default-y="-40" relative-y="-50">
          <syllabic>middle</syllabic>
          <text>ret</text>
          </lyric>
        <lyric number="2" default-x="6.5" default-y="-63.65" relative-y="-50">
          <syllabic>middle</syllabic>
          <text>tre</text>
          </lyric>
        </note>
      <note default-x="203.06" default-y="-20">
        <pitch>
          <step>B</step>
          <octave>4</octave>
          </pitch>
        <duration>2</duration>
        <voice>1</voice>
        <type>quarter</type>
        <stem>up</stem>
        <notations>
          <fermata type="upright" default-y="4" relative-y="10"/>
          </notations>
        <lyric number="1" default-x="8.07" default-y="-40" relative-y="-50">
          <syllabic>end</syllabic>
          <text>ter,</text>
          </lyric>
        <lyric number="2" default-x="8.07" default-y="-63.65" relative-y="-50">
          <syllabic>end</syllabic>
          <text>ter,</text>
          </lyric>
        </note>
      <backup>
        <duration>8</duration>
        </backup>
      <note default-x="27.34" default-y="-25">
        <pitch>
          <step>A</step>
          <octave>4</octave>
          </pitch>
        <duration>1</duration>
        <voice>2</voice>
        <type>eighth</type>
        <stem>down</stem>
        <beam number="1">begin</beam>
        </note>
      <note default-x="59.29" default-y="-30">
        <pitch>
          <step>G</step>
          <alter>1</alter>
          <octave>4</octave>
          </pitch>
        <duration>1</duration>
        <voice>2</voice>
        <type>eighth</type>
        <stem>down</stem>
        <beam number="1">end</beam>
        </note>
      <note default-x="91.24" default-y="-25">
        <pitch>
          <step>A</step>
          <octave>4</octave>
          </pitch>
        <duration>2</duration>
        <voice>2</voice>
        <type>quarter</type>
        <stem>down</stem>
        </note>
      <note default-x="155.14" default-y="-30">
        <pitch>
          <step>G</step>
          <alter>1</alter>
          <octave>4</octave>
          </pitch>
        <duration>2</duration>
        <voice>2</voice>
        <type>quarter</type>
        <stem>down</stem>
        </note>
      <note default-x="203.06" default-y="-30">
        <pitch>
          <step>G</step>
          <alter>1</alter>
          <octave>4</octave>
          </pitch>
        <duration>2</duration>
        <voice>2</voice>
        <type>quarter</type>
        <stem>down</stem>
        </note>
      </measure>
    <measure number="3" width="237.45">
      <note default-x="12" default-y="-15">
        <pitch>
          <step>C</step>
          <alter>1</alter>
          <octave>5</octave>
          </pitch>
        <duration>2</duration>
        <voice>1</voice>
        <type>quarter</type>
        <stem>up</stem>
        <lyric number="1" default-x="6.5" default-y="-40" relative-y="-50">
          <syllabic>begin</syllabic>
          <text>Je</text>
          </lyric>
        <lyric number="2" default-x="6.5" default-y="-63.65" relative-y="-50">
          <syllabic>begin</syllabic>
          <text>Je</text>
          </lyric>
        </note>
      <note default-x="75.9" default-y="-10">
        <pitch>
          <step>D</step>
          <octave>5</octave>
          </pitch>
        <duration>2</duration>
        <voice>1</voice>
        <type>quarter</type>
        <stem>up</stem>
        <lyric number="1" default-x="9.26" default-y="-40" relative-y="-50">
          <syllabic>end</syllabic>
          <text>su,</text>
          </lyric>
        <lyric number="2" default-x="9.26" default-y="-63.65" relative-y="-50">
          <syllabic>end</syllabic>
          <text>su,</text>
          </lyric>
        </note>
      <note default-x="123.82" default-y="-5">
        <pitch>
          <step>E</step>
          <octave>5</octave>
          </pitch>
        <duration>2</duration>
        <voice>1</voice>
        <type>quarter</type>
        <stem>up</stem>
        <lyric number="1" default-x="6.5" default-y="-40" relative-y="-50">
          <syllabic>begin</syllabic>
          <text>mei</text>
          </lyric>
        <lyric number="2" default-x="6.5" default-y="-63.65" relative-y="-50">
          <syllabic>begin</syllabic>
          <text>mei</text>
          </lyric>
        </note>
      <note default-x="171.75" default-y="-15">
        <pitch>
          <step>C</step>
          <alter>1</alter>
          <octave>5</octave>
          </pitch>
        <duration>2</duration>
        <voice>1</voice>
        <type>quarter</type>
        <stem>up</stem>
        <lyric number="1" default-x="6.5" default-y="-40" relative-y="-50">
          <syllabic>end</syllabic>
          <text>ne</text>
          </lyric>
        <lyric number="2" default-x="6.5" default-y="-63.65" relative-y="-50">
          <syllabic>end</syllabic>
          <text>nes</text>
          </lyric>
        </note>
      <backup>
        <duration>8</duration>
        </backup>
      <note default-x="12" default-y="-25">
        <pitch>
          <step>A</step>
          <octave>4</octave>
          </pitch>
        <duration>2</duration>
        <voice>2</voice>
        <type>quarter</type>
        <stem>down</stem>
        </note>
      <note default-x="75.9" default-y="-25">
        <pitch>
          <step>A</step>
          <octave>4</octave>
          </pitch>
        <duration>2</duration>
        <voice>2</voice>
        <type>quarter</type>
        <stem>down</stem>
        </note>
      <note default-x="123.82" default-y="-20">
        <pitch>
          <step>B</step>
          <octave>4</octave>
          </pitch>
        <duration>2</duration>
        <voice>2</voice>
        <type>quarter</type>
        <stem>down</stem>
        </note>
      <note default-x="171.75" default-y="-25">
        <pitch>
          <step>A</step>
          <octave>4</octave>
          </pitch>
        <duration>2</duration>
        <voice>2</voice>
        <type>quarter</type>
        <stem>down</stem>
        </note>
      </measure>
    <measure number="4" width="237.14">
      <note default-x="12" default-y="-20">
        <pitch>
          <step>B</step>
          <octave>4</octave>
          </pitch>
        <duration>2</duration>
        <voice>1</voice>
        <type>quarter</type>
        <stem>up</stem>
        <lyric number="1" default-x="6.5" default-y="-40" relative-y="-50">
          <syllabic>begin</syllabic>
          <text>Zu</text>
          </lyric>
        <lyric number="2" default-x="6.5" default-y="-63.65" relative-y="-50">
          <syllabic>begin</syllabic>
          <text>Le</text>
          </lyric>
        </note>
      <note default-x="75.9" default-y="-20">
        <pitch>
          <step>B</step>
          <octave>4</octave>
          </pitch>
        <duration>2</duration>
        <voice>1</voice>
        <type>quarter</type>
        <stem>up</stem>
        <lyric number="1" default-x="6.5" default-y="-40" relative-y="-50">
          <syllabic>middle</syllabic>
          <text>ver</text>
          </lyric>
        <lyric number="2" default-x="6.5" default-y="-63.65" relative-y="-50">
          <syllabic>end</syllabic>
          <text>bens</text>
          </lyric>
        </note>
      <note default-x="139.8" default-y="-25">
        <pitch>
          <step>A</step>
          <octave>4</octave>
          </pitch>
        <duration>4</duration>
        <voice>1</voice>
        <type>half</type>
        <stem>up</stem>
        <notations>
          <fermata type="upright" default-y="1.5" relative-y="10"/>
          </notations>
        <lyric number="1" default-x="9.06" default-y="-40" relative-y="-50">
          <syllabic>end</syllabic>
          <text>sicht.</text>
          </lyric>
        <lyric number="2" default-x="8.66" default-y="-63.65" relative-y="-50">
          <syllabic>single</syllabic>
          <text>Licht!</text>
          </lyric>
        </note>
      <backup>
        <duration>8</duration>
        </backup>
      <note default-x="23.89" default-y="-25">
        <pitch>
          <step>A</step>
          <octave>4</octave>
          </pitch>
        <duration>2</duration>
        <voice>2</voice>
        <type>quarter</type>
        <stem>down</stem>
        </note>
      <note default-x="75.9" default-y="-30">
        <pitch>
          <step>G</step>
          <alter>1</alter>
          <octave>4</octave>
          </pitch>
        <duration>2</duration>
        <voice>2</voice>
        <type>quarter</type>
        <stem>down</stem>
        </note>
      <note default-x="139.8" default-y="-40">
        <pitch>
          <step>E</step>
          <octave>4</octave>
          </pitch>
        <duration>4</duration>
        <voice>2</voice>
        <type>half</type>
        <stem>down</stem>
        </note>
      <barline location="right">
        <bar-style>light-heavy</bar-style>
        <repeat direction="backward"/>
        </barline>
      </measure>
    <measure number="5" width="342.27">
      <print new-system="yes">
        <system-layout>
          <system-margins>
            <left-margin>0</left-margin>
            <right-margin>-0</right-margin>
            </system-margins>
          <system-distance>95</system-distance>
          </system-layout>
        </print>
      <note default-x="101.42" default-y="-20">
        <pitch>
          <step>B</step>
          <octave>4</octave>
          </pitch>
        <duration>2</duration>
        <voice>1</voice>
        <type>quarter</type>
        <stem>up</stem>
        <lyric number="1" default-x="6.5" default-y="-40" relative-y="-50">
          <syllabic>single</syllabic>
          <text>Wie</text>
          </lyric>
        </note>
      <note default-x="149.23" default-y="-15">
        <pitch>
          <step>C</step>
          <alter>1</alter>
          <octave>5</octave>
          </pitch>
        <duration>2</duration>
        <voice>1</voice>
        <type>quarter</type>
        <stem>up</stem>
        <lyric number="1" default-x="6.5" default-y="-40" relative-y="-50">
          <syllabic>begin</syllabic>
          <text>ver</text>
          </lyric>
        </note>
      <note default-x="212.98" default-y="-10">
        <pitch>
          <step>D</step>
          <octave>5</octave>
          </pitch>
        <duration>2</duration>
        <voice>1</voice>
        <type>quarter</type>
        <stem>up</stem>
        <lyric number="1" default-x="6.5" default-y="-40" relative-y="-50">
          <syllabic>middle</syllabic>
          <text>lan</text>
          </lyric>
        </note>
      <note default-x="276.72" default-y="-10">
        <pitch>
          <step>D</step>
          <octave>5</octave>
          </pitch>
        <duration>2</duration>
        <voice>1</voice>
        <type>quarter</type>
        <stem>up</stem>
        <lyric number="1" default-x="6.5" default-y="-40" relative-y="-50">
          <syllabic>end</syllabic>
          <text>get</text>
          </lyric>
        </note>
      <backup>
        <duration>8</duration>
        </backup>
      <note default-x="101.42" default-y="-30">
        <pitch>
          <step>G</step>
          <alter>1</alter>
          <octave>4</octave>
          </pitch>
        <duration>2</duration>
        <voice>2</voice>
        <type>quarter</type>
        <stem>down</stem>
        </note>
      <note default-x="149.23" default-y="-25">
        <pitch>
          <step>A</step>
          <alter>1</alter>
          <octave>4</octave>
          </pitch>
        <duration>2</duration>
        <voice>2</voice>
        <type>quarter</type>
        <accidental>sharp</accidental>
        <stem>down</stem>
        </note>
      <note default-x="212.98" default-y="-20">
        <pitch>
          <step>B</step>
          <octave>4</octave>
          </pitch>
        <duration>2</duration>
        <voice>2</voice>
        <type>quarter</type>
        <stem>down</stem>
        </note>
      <note default-x="276.72" default-y="-20">
        <pitch>
          <step>B</step>
          <octave>4</octave>
          </pitch>
        <duration>2</duration>
        <voice>2</voice>
        <type>quarter</type>
        <stem>down</stem>
        </note>
      </measure>
    <measure number="6" width="237.66">
      <note default-x="12.76" default-y="-15">
        <pitch>
          <step>C</step>
          <alter>1</alter>
          <octave>5</octave>
          </pitch>
        <duration>2</duration>
        <voice>1</voice>
        <type>quarter</type>
        <stem>up</stem>
        <lyric number="1" default-x="6.5" default-y="-40" relative-y="-50">
          <syllabic>begin</syllabic>
          <text>mei</text>
          </lyric>
        </note>
      <note default-x="76.5" default-y="-15">
        <pitch>
          <step>C</step>
          <alter>1</alter>
          <octave>5</octave>
          </pitch>
        <duration>2</duration>
        <voice>1</voice>
        <type>quarter</type>
        <stem>up</stem>
        <lyric number="1" default-x="6.5" default-y="-40" relative-y="-50">
          <syllabic>end</syllabic>
          <text>nem</text>
          </lyric>
        </note>
      <note default-x="140.25" default-y="-20">
        <pitch>
          <step>B</step>
          <octave>4</octave>
          </pitch>
        <duration>2</duration>
        <voice>1</voice>
        <type>quarter</type>
        <stem>up</stem>
        <lyric number="1" default-x="6.5" default-y="-40" relative-y="-50">
          <syllabic>begin</syllabic>
          <text>Her</text>
          </lyric>
        </note>
      <note default-x="188.05" default-y="-20">
        <pitch>
          <step>B</step>
          <octave>4</octave>
          </pitch>
        <duration>2</duration>
        <voice>1</voice>
        <type>quarter</type>
        <stem>up</stem>
        <notations>
          <fermata type="upright" default-y="4" relative-y="10"/>
          </notations>
        <lyric number="1" default-x="9.06" default-y="-40" relative-y="-50">
          <syllabic>end</syllabic>
          <text>zen,</text>
          </lyric>
        </note>
      <backup>
        <duration>8</duration>
        </backup>
      <note default-x="24.65" default-y="-20">
        <pitch>
          <step>B</step>
          <octave>4</octave>
          </pitch>
        <duration>2</duration>
        <voice>2</voice>
        <type>quarter</type>
        <stem>down</stem>
        </note>
      <note default-x="76.5" default-y="-25">
        <pitch>
          <step>A</step>
          <alter>1</alter>
          <octave>4</octave>
          </pitch>
        <duration>2</duration>
        <voice>2</voice>
        <type>quarter</type>
        <accidental>sharp</accidental>
        <stem>down</stem>
        </note>
      <note default-x="140.25" default-y="-35">
        <pitch>
          <step>F</step>
          <alter>1</alter>
          <octave>4</octave>
          </pitch>
        <duration>2</duration>
        <voice>2</voice>
        <type>quarter</type>
        <stem>down</stem>
        </note>
      <note default-x="188.05" default-y="-35">
        <pitch>
          <step>F</step>
          <alter>1</alter>
          <octave>4</octave>
          </pitch>
        <duration>2</duration>
        <voice>2</voice>
        <type>quarter</type>
        <stem>down</stem>
        </note>
      </measure>
    <measure number="7" width="236.91">
      <note default-x="12" default-y="-10">
        <pitch>
          <step>D</step>
          <octave>5</octave>
          </pitch>
        <duration>2</duration>
        <voice>1</voice>
        <type>quarter</type>
        <stem>up</stem>
        <lyric number="1" default-x="6.5" default-y="-40" relative-y="-50">
          <syllabic>begin</syllabic>
          <text>Je</text>
          </lyric>
        </note>
      <note default-x="59.81" default-y="-5">
        <pitch>
          <step>E</step>
          <octave>5</octave>
          </pitch>
        <duration>2</duration>
        <voice>1</voice>
        <type>quarter</type>
        <stem>up</stem>
        <lyric number="1" default-x="6.5" default-y="-40" relative-y="-50">
          <syllabic>middle</syllabic>
          <text>su</text>
          </lyric>
        </note>
      <note default-x="123.55" default-y="0">
        <pitch>
          <step>F</step>
          <alter>1</alter>
          <octave>5</octave>
          </pitch>
        <duration>2</duration>
        <voice>1</voice>
        <type>quarter</type>
        <stem>up</stem>
        <lyric number="1" default-x="8.86" default-y="-40" relative-y="-50">
          <syllabic>end</syllabic>
          <text>lein,</text>
          </lyric>
        </note>
      <note default-x="187.3" default-y="0">
        <pitch>
          <step>F</step>
          <alter>1</alter>
          <octave>5</octave>
          </pitch>
        <duration>2</duration>
        <voice>1</voice>
        <type>quarter</type>
        <stem>up</stem>
        <lyric number="1" default-x="6.5" default-y="-40" relative-y="-50">
          <syllabic>single</syllabic>
          <text>nach</text>
          </lyric>
        </note>
      <backup>
        <duration>8</duration>
        </backup>
      <note default-x="12" default-y="-35">
        <pitch>
          <step>F</step>
          <alter>1</alter>
          <octave>4</octave>
          </pitch>
        <duration>2</duration>
        <voice>2</voice>
        <type>quarter</type>
        <stem>down</stem>
        </note>
      <note default-x="59.81" default-y="-25">
        <pitch>
          <step>A</step>
          <octave>4</octave>
          </pitch>
        <duration>2</duration>
        <voice>2</voice>
        <type>quarter</type>
        <accidental cautionary="yes" parentheses="no">natural</accidental>
        <stem>down</stem>
        </note>
      <note default-x="123.55" default-y="-25">
        <pitch>
          <step>A</step>
          <octave>4</octave>
          </pitch>
        <duration>2</duration>
        <voice>2</voice>
        <type>quarter</type>
        <stem>down</stem>
        </note>
      <note default-x="187.3" default-y="-25">
        <pitch>
          <step>A</step>
          <octave>4</octave>
          </pitch>
        <duration>2</duration>
        <voice>2</voice>
        <type>quarter</type>
        <stem>down</stem>
        </note>
      </measure>
    <measure number="8" width="244.95">
      <note default-x="12" default-y="-5">
        <pitch>
          <step>E</step>
          <octave>5</octave>
          </pitch>
        <duration>2</duration>
        <voice>1</voice>
        <type>quarter</type>
        <stem>up</stem>
        <lyric number="1" default-x="6.5" default-y="-40" relative-y="-50">
          <syllabic>single</syllabic>
          <text>dir</text>
          </lyric>
        </note>
      <note default-x="75.75" default-y="-5">
        <pitch>
          <step>E</step>
          <octave>5</octave>
          </pitch>
        <duration>2</duration>
        <voice>1</voice>
        <type>quarter</type>
        <stem>up</stem>
        <lyric number="1" default-x="6.5" default-y="-40" relative-y="-50">
          <syllabic>single</syllabic>
          <text>mit</text>
          </lyric>
        </note>
      <note default-x="139.49" default-y="-10">
        <pitch>
          <step>D</step>
          <octave>5</octave>
          </pitch>
        <duration>2</duration>
        <voice>1</voice>
        <type>quarter</type>
        <stem>up</stem>
        <lyric number="1" default-x="6.5" default-y="-40" relative-y="-50">
          <syllabic>begin</syllabic>
          <text>Schmer</text>
          </lyric>
        </note>
      <note default-x="195.34" default-y="-10">
        <pitch>
          <step>D</step>
          <octave>5</octave>
          </pitch>
        <duration>2</duration>
        <voice>1</voice>
        <type>quarter</type>
        <stem>up</stem>
        <notations>
          <fermata type="upright" default-y="9" relative-y="10"/>
          </notations>
        <lyric number="1" default-x="8.86" default-y="-40" relative-y="-50">
          <syllabic>end</syllabic>
          <text>zen!</text>
          </lyric>
        </note>
      <backup>
        <duration>8</duration>
        </backup>
      <note default-x="12" default-y="-25">
        <pitch>
          <step>A</step>
          <octave>4</octave>
          </pitch>
        <duration>1</duration>
        <voice>2</voice>
        <type>eighth</type>
        <stem>down</stem>
        <beam number="1">begin</beam>
        </note>
      <note default-x="43.87" default-y="-40">
        <pitch>
          <step>E</step>
          <octave>4</octave>
          </pitch>
        <duration>1</duration>
        <voice>2</voice>
        <type>eighth</type>
        <stem>down</stem>
        <beam number="1">end</beam>
        </note>
      <note default-x="75.75" default-y="-25">
        <pitch>
          <step>A</step>
          <octave>4</octave>
          </pitch>
        <duration>1</duration>
        <voice>2</voice>
        <type>eighth</type>
        <stem>down</stem>
        <beam number="1">begin</beam>
        </note>
      <note default-x="107.62" default-y="-30">
        <pitch>
          <step>G</step>
          <octave>4</octave>
          </pitch>
        <duration>1</duration>
        <voice>2</voice>
        <type>eighth</type>
        <accidental>natural</accidental>
        <stem>down</stem>
        <beam number="1">end</beam>
        </note>
      <note default-x="139.49" default-y="-35">
        <pitch>
          <step>F</step>
          <alter>1</alter>
          <octave>4</octave>
          </pitch>
        <duration>2</duration>
        <voice>2</voice>
        <type>quarter</type>
        <stem>down</stem>
        </note>
      <note default-x="195.34" default-y="-35">
        <pitch>
          <step>F</step>
          <alter>1</alter>
          <octave>4</octave>
          </pitch>
        <duration>2</duration>
        <voice>2</voice>
        <type>quarter</type>
        <stem>down</stem>
        </note>
      </measure>
    <measure number="9" width="338.41">
      <print new-system="yes">
        <system-layout>
          <system-margins>
            <left-margin>0</left-margin>
            <right-margin>0</right-margin>
            </system-margins>
          <system-distance>95</system-distance>
          </system-layout>
        </print>
      <note default-x="101.42" default-y="-15">
        <pitch>
          <step>C</step>
          <alter>1</alter>
          <octave>5</octave>
          </pitch>
        <duration>2</duration>
        <voice>1</voice>
        <type>quarter</type>
        <stem>up</stem>
        <lyric number="1" default-x="11.03" default-y="-40" relative-y="-50">
          <syllabic>single</syllabic>
          <text>Komm',</text>
          </lyric>
        </note>
      <note default-x="168.62" default-y="-10">
        <pitch>
          <step>D</step>
          <octave>5</octave>
          </pitch>
        <duration>2</duration>
        <voice>1</voice>
        <type>quarter</type>
        <stem>up</stem>
        <lyric number="1" default-x="6.5" default-y="-40" relative-y="-50">
          <syllabic>single</syllabic>
          <text>ach</text>
          </lyric>
        </note>
      <note default-x="219.02" default-y="-5">
        <pitch>
          <step>E</step>
          <octave>5</octave>
          </pitch>
        <duration>2</duration>
        <voice>1</voice>
        <type>quarter</type>
        <stem>up</stem>
        <lyric number="1" default-x="10.83" default-y="-40" relative-y="-50">
          <syllabic>single</syllabic>
          <text>komm',</text>
          </lyric>
        </note>
      <note default-x="286.21" default-y="-5">
        <pitch>
          <step>E</step>
          <octave>5</octave>
          </pitch>
        <duration>2</duration>
        <voice>1</voice>
        <type>quarter</type>
        <stem>up</stem>
        <lyric number="1" default-x="6.5" default-y="-40" relative-y="-50">
          <syllabic>single</syllabic>
          <text>ich</text>
          </lyric>
        </note>
      <backup>
        <duration>8</duration>
        </backup>
      <note default-x="101.42" default-y="-40">
        <pitch>
          <step>E</step>
          <octave>4</octave>
          </pitch>
        <duration>2</duration>
        <voice>2</voice>
        <type>quarter</type>
        <stem>down</stem>
        </note>
      <note default-x="168.62" default-y="-25">
        <pitch>
          <step>A</step>
          <octave>4</octave>
          </pitch>
        <duration>2</duration>
        <voice>2</voice>
        <type>quarter</type>
        <stem>down</stem>
        </note>
      <note default-x="219.02" default-y="-40">
        <pitch>
          <step>E</step>
          <octave>4</octave>
          </pitch>
        <duration>1</duration>
        <voice>2</voice>
        <type>eighth</type>
        <stem>down</stem>
        <beam number="1">begin</beam>
        </note>
      <note default-x="252.61" default-y="-35">
        <pitch>
          <step>F</step>
          <alter>1</alter>
          <octave>4</octave>
          </pitch>
        <duration>1</duration>
        <voice>2</voice>
        <type>eighth</type>
        <stem>down</stem>
        <beam number="1">end</beam>
        </note>
      <note default-x="286.21" default-y="-30">
        <pitch>
          <step>G</step>
          <alter>1</alter>
          <octave>4</octave>
          </pitch>
        <duration>2</duration>
        <voice>2</voice>
        <type>quarter</type>
        <accidental cautionary="yes" parentheses="no">sharp</accidental>
        <stem>down</stem>
        </note>
      </measure>
    <measure number="10" width="208.73">
      <note default-x="13.74" default-y="-10">
        <pitch>
          <step>D</step>
          <octave>5</octave>
          </pitch>
        <duration>2</duration>
        <voice>1</voice>
        <type>quarter</type>
        <stem>up</stem>
        <lyric number="1" default-x="6.5" default-y="-40" relative-y="-50">
          <syllabic>begin</syllabic>
          <text>war</text>
          </lyric>
        </note>
      <note default-x="80.94" default-y="-15">
        <pitch>
          <step>C</step>
          <alter>1</alter>
          <octave>5</octave>
          </pitch>
        <duration>2</duration>
        <voice>1</voice>
        <type>quarter</type>
        <stem>up</stem>
        <lyric number="1" default-x="6.5" default-y="-40" relative-y="-50">
          <syllabic>end</syllabic>
          <text>te</text>
          </lyric>
        </note>
      <note default-x="131.33" default-y="-20">
        <pitch>
          <step>B</step>
          <octave>4</octave>
          </pitch>
        <duration>4</duration>
        <voice>1</voice>
        <type>half</type>
        <stem>up</stem>
        <notations>
          <fermata type="upright" default-y="4" relative-y="10"/>
          </notations>
        <lyric number="1" default-x="9.26" default-y="-40" relative-y="-50">
          <syllabic>single</syllabic>
          <text>dein,</text>
          </lyric>
        </note>
      <backup>
        <duration>8</duration>
        </backup>
      <note default-x="13.74" default-y="-25">
        <pitch>
          <step>A</step>
          <octave>4</octave>
          </pitch>
        <duration>2</duration>
        <voice>2</voice>
        <type>quarter</type>
        <stem>down</stem>
        </note>
      <note default-x="80.94" default-y="-25">
        <pitch>
          <step>A</step>
          <octave>4</octave>
          </pitch>
        <duration>2</duration>
        <voice>2</voice>
        <type>quarter</type>
        <stem>down</stem>
        </note>
      <note default-x="131.33" default-y="-30">
        <pitch>
          <step>G</step>
          <alter>1</alter>
          <octave>4</octave>
          </pitch>
        <duration>4</duration>
        <voice>2</voice>
        <type>half</type>
        <stem>down</stem>
        </note>
      </measure>
    <measure number="11" width="278.36">
      <note default-x="24.58" default-y="-15">
        <pitch>
          <step>C</step>
          <alter>1</alter>
          <octave>5</octave>
          </pitch>
        <duration>2</duration>
        <voice>1</voice>
        <type>quarter</type>
        <stem>up</stem>
        <lyric number="1" default-x="8.07" default-y="-40" relative-y="-50">
          <syllabic>single</syllabic>
          <text>komm'</text>
          </lyric>
        </note>
      <note default-x="91.78" default-y="-10">
        <pitch>
          <step>D</step>
          <octave>5</octave>
          </pitch>
        <duration>2</duration>
        <voice>1</voice>
        <type>quarter</type>
        <stem>up</stem>
        <lyric number="1" default-x="6.5" default-y="-40" relative-y="-50">
          <syllabic>single</syllabic>
          <text>o</text>
          </lyric>
        </note>
      <note default-x="158.97" default-y="-5">
        <pitch>
          <step>E</step>
          <octave>5</octave>
          </pitch>
        <duration>1</duration>
        <voice>1</voice>
        <type>eighth</type>
        <stem>up</stem>
        <beam number="1">begin</beam>
        <lyric number="1" default-y="-40" relative-y="-50">
          <syllabic>begin</syllabic>
          <text>lieb</text>
          </lyric>
        </note>
      <note default-x="192.57" default-y="-10">
        <pitch>
          <step>D</step>
          <octave>5</octave>
          </pitch>
        <duration>1</duration>
        <voice>1</voice>
        <type>eighth</type>
        <stem>up</stem>
        <beam number="1">end</beam>
        </note>
      <note default-x="226.17" default-y="-15">
        <pitch>
          <step>C</step>
          <alter>1</alter>
          <octave>5</octave>
          </pitch>
        <duration>2</duration>
        <voice>1</voice>
        <type>quarter</type>
        <stem>up</stem>
        <lyric number="1" default-x="6.5" default-y="-40" relative-y="-50">
          <syllabic>end</syllabic>
          <text>stes</text>
          </lyric>
        </note>
      <backup>
        <duration>8</duration>
        </backup>
      <note default-x="24.58" default-y="-25">
        <pitch>
          <step>A</step>
          <octave>4</octave>
          </pitch>
        <duration>2</duration>
        <voice>2</voice>
        <type>quarter</type>
        <stem>down</stem>
        </note>
      <note default-x="91.78" default-y="-25">
        <pitch>
          <step>A</step>
          <octave>4</octave>
          </pitch>
        <duration>2</duration>
        <voice>2</voice>
        <type>quarter</type>
        <stem>down</stem>
        </note>
      <note default-x="158.97" default-y="-25">
        <pitch>
          <step>A</step>
          <octave>4</octave>
          </pitch>
        <duration>1</duration>
        <voice>2</voice>
        <type>eighth</type>
        <stem>down</stem>
        <beam number="1">begin</beam>
        </note>
      <note default-x="192.57" default-y="-30">
        <pitch>
          <step>G</step>
          <alter>1</alter>
          <octave>4</octave>
          </pitch>
        <duration>1</duration>
        <voice>2</voice>
        <type>eighth</type>
        <stem>down</stem>
        <beam number="1">end</beam>
        </note>
      <note default-x="226.17" default-y="-25">
        <pitch>
          <step>A</step>
          <octave>4</octave>
          </pitch>
        <duration>2</duration>
        <voice>2</voice>
        <type>quarter</type>
        <stem>down</stem>
        </note>
      </measure>
    <measure number="12" width="236.29">
      <note default-x="12" default-y="-20">
        <pitch>
          <step>B</step>
          <octave>4</octave>
          </pitch>
        <duration>2</duration>
        <voice>1</voice>
        <type>quarter</type>
        <stem>up</stem>
        <lyric number="1" default-x="6.5" default-y="-40" relative-y="-50">
          <syllabic>begin</syllabic>
          <text>Je</text>
          </lyric>
        </note>
      <note default-x="79.2" default-y="-20">
        <pitch>
          <step>B</step>
          <octave>4</octave>
          </pitch>
        <duration>2</duration>
        <voice>1</voice>
        <type>quarter</type>
        <stem>up</stem>
        <lyric number="1" default-x="6.5" default-y="-40" relative-y="-50">
          <syllabic>middle</syllabic>
          <text>su</text>
          </lyric>
        </note>
      <note default-x="146.39" default-y="-25">
        <pitch>
          <step>A</step>
          <octave>4</octave>
          </pitch>
        <duration>4</duration>
        <voice>1</voice>
        <type>half</type>
        <stem>up</stem>
        <notations>
          <fermata type="upright" default-y="1.5" relative-y="10"/>
          </notations>
        <lyric number="1" default-x="8.66" default-y="-40" relative-y="-50">
          <syllabic>end</syllabic>
          <text>lein!</text>
          </lyric>
        </note>
      <backup>
        <duration>8</duration>
        </backup>
      <note default-x="23.89" default-y="-25">
        <pitch>
          <step>A</step>
          <octave>4</octave>
          </pitch>
        <duration>2</duration>
        <voice>2</voice>
        <type>quarter</type>
        <stem>down</stem>
        </note>
      <note default-x="79.2" default-y="-30">
        <pitch>
          <step>G</step>
          <alter>1</alter>
          <octave>4</octave>
          </pitch>
        <duration>2</duration>
        <voice>2</voice>
        <type>quarter</type>
        <stem>down</stem>
        </note>
      <note default-x="146.39" default-y="-40">
        <pitch>
          <step>E</step>
          <octave>4</octave>
          </pitch>
        <duration>4</duration>
        <voice>2</voice>
        <type>half</type>
        <stem>down</stem>
        </note>
      <barline location="right">
        <bar-style>light-heavy</bar-style>
        </barline>
      </measure>
    </part>
  <part id="P2">
    <measure number="1" width="334.42">
      <print>
        <staff-layout number="1">
          <staff-distance>144.04</staff-distance>
          </staff-layout>
        </print>
      <attributes>
        <divisions>2</divisions>
        <key>
          <fifths>3</fifths>
          </key>
        <time symbol="common">
          <beats>4</beats>
          <beat-type>4</beat-type>
          </time>
        <clef>
          <sign>F</sign>
          <line>4</line>
          </clef>
        </attributes>
      <note default-x="124.94" default-y="-164.04">
        <pitch>
          <step>E</step>
          <octave>4</octave>
          </pitch>
        <duration>2</duration>
        <voice>1</voice>
        <type>quarter</type>
        <stem>up</stem>
        </note>
      <note default-x="172.87" default-y="-159.04">
        <pitch>
          <step>F</step>
          <alter>1</alter>
          <octave>4</octave>
          </pitch>
        <duration>2</duration>
        <voice>1</voice>
        <type>quarter</type>
        <stem>up</stem>
        </note>
      <note default-x="220.79" default-y="-164.04">
        <pitch>
          <step>E</step>
          <octave>4</octave>
          </pitch>
        <duration>1</duration>
        <voice>1</voice>
        <type>eighth</type>
        <stem>up</stem>
        <beam number="1">begin</beam>
        </note>
      <note default-x="252.74" default-y="-169.04">
        <pitch>
          <step>D</step>
          <octave>4</octave>
          </pitch>
        <duration>1</duration>
        <voice>1</voice>
        <type>eighth</type>
        <stem>up</stem>
        <beam number="1">end</beam>
        </note>
      <note default-x="284.69" default-y="-174.04">
        <pitch>
          <step>C</step>
          <alter>1</alter>
          <octave>4</octave>
          </pitch>
        <duration>2</duration>
        <voice>1</voice>
        <type>quarter</type>
        <stem>up</stem>
        </note>
      <backup>
        <duration>8</duration>
        </backup>
      <note default-x="124.94" default-y="-184.04">
        <pitch>
          <step>A</step>
          <octave>3</octave>
          </pitch>
        <duration>2</duration>
        <voice>2</voice>
        <type>quarter</type>
        <stem>down</stem>
        </note>
      <note default-x="172.87" default-y="-194.04">
        <pitch>
          <step>F</step>
          <alter>1</alter>
          <octave>3</octave>
          </pitch>
        <duration>2</duration>
        <voice>2</voice>
        <type>quarter</type>
        <stem>down</stem>
        </note>
      <note default-x="220.79" default-y="-209.04">
        <pitch>
          <step>C</step>
          <alter>1</alter>
          <octave>3</octave>
          </pitch>
        <duration>2</duration>
        <voice>2</voice>
        <type>quarter</type>
        <stem>down</stem>
        </note>
      <note default-x="284.69" default-y="-194.04">
        <pitch>
          <step>F</step>
          <alter>1</alter>
          <octave>3</octave>
          </pitch>
        <duration>2</duration>
        <voice>2</voice>
        <type>quarter</type>
        <stem>down</stem>
        </note>
      </measure>
    <measure number="2" width="252.79">
      <note default-x="27.34" default-y="-169.04">
        <pitch>
          <step>D</step>
          <octave>4</octave>
          </pitch>
        <duration>2</duration>
        <voice>1</voice>
        <type>quarter</type>
        <stem>up</stem>
        </note>
      <note default-x="91.24" default-y="-164.04">
        <pitch>
          <step>E</step>
          <octave>4</octave>
          </pitch>
        <duration>2</duration>
        <voice>1</voice>
        <type>quarter</type>
        <stem>up</stem>
        </note>
      <note default-x="155.14" default-y="-164.04">
        <pitch>
          <step>E</step>
          <octave>4</octave>
          </pitch>
        <duration>2</duration>
        <voice>1</voice>
        <type>quarter</type>
        <stem>up</stem>
        </note>
      <note default-x="203.06" default-y="-164.04">
        <pitch>
          <step>E</step>
          <octave>4</octave>
          </pitch>
        <duration>2</duration>
        <voice>1</voice>
        <type>quarter</type>
        <stem>up</stem>
        </note>
      <backup>
        <duration>8</duration>
        </backup>
      <note default-x="27.34" default-y="-214.04">
        <pitch>
          <step>B</step>
          <octave>2</octave>
          </pitch>
        <duration>2</duration>
        <voice>2</voice>
        <type>quarter</type>
        <stem>down</stem>
        </note>
      <note default-x="91.24" default-y="-209.04">
        <pitch>
          <step>C</step>
          <alter>1</alter>
          <octave>3</octave>
          </pitch>
        <duration>1</duration>
        <voice>2</voice>
        <type>eighth</type>
        <stem>down</stem>
        <beam number="1">begin</beam>
        </note>
      <note default-x="123.19" default-y="-204.04">
        <pitch>
          <step>D</step>
          <octave>3</octave>
          </pitch>
        <duration>1</duration>
        <voice>2</voice>
        <type>eighth</type>
        <stem>down</stem>
        <beam number="1">end</beam>
        </note>
      <note default-x="155.14" default-y="-199.04">
        <pitch>
          <step>E</step>
          <octave>3</octave>
          </pitch>
        <duration>2</duration>
        <voice>2</voice>
        <type>quarter</type>
        <stem>down</stem>
        </note>
      <note default-x="203.06" default-y="-199.04">
        <pitch>
          <step>E</step>
          <octave>3</octave>
          </pitch>
        <duration>2</duration>
        <voice>2</voice>
        <type>quarter</type>
        <stem>down</stem>
        </note>
      </measure>
    <measure number="3" width="237.45">
      <note default-x="12" default-y="-164.04">
        <pitch>
          <step>E</step>
          <octave>4</octave>
          </pitch>
        <duration>2</duration>
        <voice>1</voice>
        <type>quarter</type>
        <stem>up</stem>
        </note>
      <note default-x="75.9" default-y="-159.04">
        <pitch>
          <step>F</step>
          <alter>1</alter>
          <octave>4</octave>
          </pitch>
        <duration>2</duration>
        <voice>1</voice>
        <type>quarter</type>
        <stem>up</stem>
        </note>
      <note default-x="123.82" default-y="-179.04">
        <pitch>
          <step>B</step>
          <octave>3</octave>
          </pitch>
        <duration>2</duration>
        <voice>1</voice>
        <type>quarter</type>
        <stem>up</stem>
        </note>
      <note default-x="171.75" default-y="-174.04">
        <pitch>
          <step>C</step>
          <alter>1</alter>
          <octave>4</octave>
          </pitch>
        <duration>1</duration>
        <voice>1</voice>
        <type>eighth</type>
        <stem>up</stem>
        <beam number="1">begin</beam>
        </note>
      <note default-x="203.7" default-y="-169.04">
        <pitch>
          <step>D</step>
          <octave>4</octave>
          </pitch>
        <duration>1</duration>
        <voice>1</voice>
        <type>eighth</type>
        <stem>up</stem>
        <beam number="1">end</beam>
        </note>
      <backup>
        <duration>8</duration>
        </backup>
      <note default-x="12" default-y="-184.04">
        <pitch>
          <step>A</step>
          <octave>3</octave>
          </pitch>
        <duration>1</duration>
        <voice>2</voice>
        <type>eighth</type>
        <stem>down</stem>
        <beam number="1">begin</beam>
        </note>
      <note default-x="43.95" default-y="-189.04">
        <pitch>
          <step>G</step>
          <alter>1</alter>
          <octave>3</octave>
          </pitch>
        <duration>1</duration>
        <voice>2</voice>
        <type>eighth</type>
        <stem>down</stem>
        <beam number="1">end</beam>
        </note>
      <note default-x="75.9" default-y="-194.04">
        <pitch>
          <step>F</step>
          <alter>1</alter>
          <octave>3</octave>
          </pitch>
        <duration>2</duration>
        <voice>2</voice>
        <type>quarter</type>
        <stem>down</stem>
        </note>
      <note default-x="123.82" default-y="-189.04">
        <pitch>
          <step>G</step>
          <alter>1</alter>
          <octave>3</octave>
          </pitch>
        <duration>2</duration>
        <voice>2</voice>
        <type>quarter</type>
        <stem>down</stem>
        </note>
      <note default-x="171.75" default-y="-184.04">
        <pitch>
          <step>A</step>
          <octave>3</octave>
          </pitch>
        <duration>2</duration>
        <voice>2</voice>
        <type>quarter</type>
        <stem>down</stem>
        </note>
      </measure>
    <measure number="4" width="237.14">
      <note default-x="12" default-y="-164.04">
        <pitch>
          <step>E</step>
          <octave>4</octave>
          </pitch>
        <duration>1</duration>
        <voice>1</voice>
        <type>eighth</type>
        <stem>up</stem>
        <beam number="1">begin</beam>
        </note>
      <note default-x="43.95" default-y="-179.04">
        <pitch>
          <step>B</step>
          <octave>3</octave>
          </pitch>
        <duration>1</duration>
        <voice>1</voice>
        <type>eighth</type>
        <stem>up</stem>
        <beam number="1">end</beam>
        </note>
      <note default-x="75.9" default-y="-164.04">
        <pitch>
          <step>E</step>
          <octave>4</octave>
          </pitch>
        <duration>1</duration>
        <voice>1</voice>
        <type>eighth</type>
        <stem>up</stem>
        <beam number="1">begin</beam>
        </note>
      <note default-x="107.85" default-y="-169.04">
        <pitch>
          <step>D</step>
          <octave>4</octave>
          </pitch>
        <duration>1</duration>
        <voice>1</voice>
        <type>eighth</type>
        <stem>up</stem>
        <beam number="1">end</beam>
        </note>
      <note default-x="139.8" default-y="-174.04">
        <pitch>
          <step>C</step>
          <alter>1</alter>
          <octave>4</octave>
          </pitch>
        <duration>4</duration>
        <voice>1</voice>
        <type>half</type>
        <stem>up</stem>
        </note>
      <backup>
        <duration>8</duration>
        </backup>
      <note default-x="12" default-y="-199.04">
        <pitch>
          <step>E</step>
          <octave>3</octave>
          </pitch>
        <duration>2</duration>
        <voice>2</voice>
        <type>quarter</type>
        <stem>down</stem>
        </note>
      <note default-x="75.9" default-y="-199.04">
        <pitch>
          <step>E</step>
          <octave>3</octave>
          </pitch>
        <duration>2</duration>
        <voice>2</voice>
        <type>quarter</type>
        <stem>down</stem>
        </note>
      <note default-x="139.8" default-y="-219.04">
        <pitch>
          <step>A</step>
          <octave>2</octave>
          </pitch>
        <duration>4</duration>
        <voice>2</voice>
        <type>half</type>
        <stem>down</stem>
        </note>
      <barline location="right">
        <bar-style>light-heavy</bar-style>
        <repeat direction="backward"/>
        </barline>
      </measure>
    <measure number="5" width="342.27">
      <print new-system="yes">
        <staff-layout number="1">
          <staff-distance>122.89</staff-distance>
          </staff-layout>
        </print>
      <note default-x="101.42" default-y="-142.89">
        <pitch>
          <step>E</step>
          <octave>4</octave>
          </pitch>
        <duration>2</duration>
        <voice>1</voice>
        <type>quarter</type>
        <stem>up</stem>
        </note>
      <note default-x="149.23" default-y="-142.89">
        <pitch>
          <step>E</step>
          <octave>4</octave>
          </pitch>
        <duration>2</duration>
        <voice>1</voice>
        <type>quarter</type>
        <stem>up</stem>
        </note>
      <note default-x="212.98" default-y="-137.89">
        <pitch>
          <step>F</step>
          <alter>1</alter>
          <octave>4</octave>
          </pitch>
        <duration>2</duration>
        <voice>1</voice>
        <type>quarter</type>
        <stem>up</stem>
        </note>
      <note default-x="276.72" default-y="-137.89">
        <pitch>
          <step>F</step>
          <alter>1</alter>
          <octave>4</octave>
          </pitch>
        <duration>2</duration>
        <voice>1</voice>
        <type>quarter</type>
        <stem>up</stem>
        </note>
      <backup>
        <duration>8</duration>
        </backup>
      <note default-x="101.42" default-y="-177.89">
        <pitch>
          <step>E</step>
          <octave>3</octave>
          </pitch>
        <duration>2</duration>
        <voice>2</voice>
        <type>quarter</type>
        <stem>down</stem>
        </note>
      <note default-x="149.23" default-y="-182.89">
        <pitch>
          <step>D</step>
          <octave>3</octave>
          </pitch>
        <duration>1</duration>
        <voice>2</voice>
        <type>eighth</type>
        <stem>down</stem>
        <beam number="1">begin</beam>
        </note>
      <note default-x="181.11" default-y="-187.89">
        <pitch>
          <step>C</step>
          <alter>1</alter>
          <octave>3</octave>
          </pitch>
        <duration>1</duration>
        <voice>2</voice>
        <type>eighth</type>
        <stem>down</stem>
        <beam number="1">end</beam>
        </note>
      <note default-x="212.98" default-y="-192.89">
        <pitch>
          <step>B</step>
          <octave>2</octave>
          </pitch>
        <duration>1</duration>
        <voice>2</voice>
        <type>eighth</type>
        <stem>down</stem>
        <beam number="1">begin</beam>
        </note>
      <note default-x="244.85" default-y="-187.89">
        <pitch>
          <step>C</step>
          <alter>1</alter>
          <octave>3</octave>
          </pitch>
        <duration>1</duration>
        <voice>2</voice>
        <type>eighth</type>
        <stem>down</stem>
        <beam number="1">end</beam>
        </note>
      <note default-x="276.72" default-y="-182.89">
        <pitch>
          <step>D</step>
          <octave>3</octave>
          </pitch>
        <duration>1</duration>
        <voice>2</voice>
        <type>eighth</type>
        <stem>down</stem>
        <beam number="1">begin</beam>
        </note>
      <note default-x="308.6" default-y="-177.89">
        <pitch>
          <step>E</step>
          <octave>3</octave>
          </pitch>
        <duration>1</duration>
        <voice>2</voice>
        <type>eighth</type>
        <stem>down</stem>
        <beam number="1">end</beam>
        </note>
      </measure>
    <measure number="6" width="237.66">
      <note default-x="12.76" default-y="-137.89">
        <pitch>
          <step>F</step>
          <alter>1</alter>
          <octave>4</octave>
          </pitch>
        <duration>1</duration>
        <voice>1</voice>
        <type>eighth</type>
        <stem>up</stem>
        <beam number="1">begin</beam>
        </note>
      <note default-x="44.63" default-y="-152.89">
        <pitch>
          <step>C</step>
          <alter>1</alter>
          <octave>4</octave>
          </pitch>
        <duration>1</duration>
        <voice>1</voice>
        <type>eighth</type>
        <stem>up</stem>
        <beam number="1">end</beam>
        </note>
      <note default-x="76.5" default-y="-137.89">
        <pitch>
          <step>F</step>
          <alter>1</alter>
          <octave>4</octave>
          </pitch>
        <duration>1</duration>
        <voice>1</voice>
        <type>eighth</type>
        <stem>up</stem>
        <beam number="1">begin</beam>
        </note>
      <note default-x="108.37" default-y="-142.89">
        <pitch>
          <step>E</step>
          <octave>4</octave>
          </pitch>
        <duration>1</duration>
        <voice>1</voice>
        <type>eighth</type>
        <stem>up</stem>
        <beam number="1">end</beam>
        </note>
      <note default-x="140.25" default-y="-147.89">
        <pitch>
          <step>D</step>
          <octave>4</octave>
          </pitch>
        <duration>2</duration>
        <voice>1</voice>
        <type>quarter</type>
        <stem>up</stem>
        </note>
      <note default-x="188.05" default-y="-147.89">
        <pitch>
          <step>D</step>
          <octave>4</octave>
          </pitch>
        <duration>2</duration>
        <voice>1</voice>
        <type>quarter</type>
        <stem>up</stem>
        </note>
      <backup>
        <duration>8</duration>
        </backup>
      <note default-x="12.76" default-y="-172.89">
        <pitch>
          <step>F</step>
          <alter>1</alter>
          <octave>3</octave>
          </pitch>
        <duration>2</duration>
        <voice>2</voice>
        <type>quarter</type>
        <stem>down</stem>
        </note>
      <note default-x="76.5" default-y="-172.89">
        <pitch>
          <step>F</step>
          <alter>1</alter>
          <octave>3</octave>
          </pitch>
        <duration>2</duration>
        <voice>2</voice>
        <type>quarter</type>
        <stem>down</stem>
        </note>
      <note default-x="140.25" default-y="-192.89">
        <pitch>
          <step>B</step>
          <octave>2</octave>
          </pitch>
        <duration>2</duration>
        <voice>2</voice>
        <type>quarter</type>
        <stem>down</stem>
        </note>
      <note default-x="188.05" default-y="-192.89">
        <pitch>
          <step>B</step>
          <octave>2</octave>
          </pitch>
        <duration>2</duration>
        <voice>2</voice>
        <type>quarter</type>
        <stem>down</stem>
        </note>
      </measure>
    <measure number="7" width="236.91">
      <note default-x="12" default-y="-147.89">
        <pitch>
          <step>D</step>
          <octave>4</octave>
          </pitch>
        <duration>2</duration>
        <voice>1</voice>
        <type>quarter</type>
        <stem>up</stem>
        </note>
      <note default-x="59.81" default-y="-152.89">
        <pitch>
          <step>C</step>
          <alter>1</alter>
          <octave>4</octave>
          </pitch>
        <duration>2</duration>
        <voice>1</voice>
        <type>quarter</type>
        <stem>up</stem>
        </note>
      <note default-x="123.55" default-y="-147.89">
        <pitch>
          <step>D</step>
          <octave>4</octave>
          </pitch>
        <duration>2</duration>
        <voice>1</voice>
        <type>quarter</type>
        <stem>up</stem>
        </note>
      <note default-x="187.3" default-y="-147.89">
        <pitch>
          <step>D</step>
          <octave>4</octave>
          </pitch>
        <duration>2</duration>
        <voice>1</voice>
        <type>quarter</type>
        <stem>up</stem>
        </note>
      <backup>
        <duration>8</duration>
        </backup>
      <note default-x="12" default-y="-157.89">
        <pitch>
          <step>B</step>
          <octave>3</octave>
          </pitch>
        <duration>2</duration>
        <voice>2</voice>
        <type>quarter</type>
        <stem>down</stem>
        </note>
      <note default-x="59.81" default-y="-162.89">
        <pitch>
          <step>A</step>
          <octave>3</octave>
          </pitch>
        <duration>1</duration>
        <voice>2</voice>
        <type>eighth</type>
        <accidental cautionary="yes" parentheses="no">natural</accidental>
        <stem>down</stem>
        <beam number="1">begin</beam>
        </note>
      <note default-x="91.68" default-y="-167.89">
        <pitch>
          <step>G</step>
          <octave>3</octave>
          </pitch>
        <duration>1</duration>
        <voice>2</voice>
        <type>eighth</type>
        <accidental>natural</accidental>
        <stem>down</stem>
        <beam number="1">end</beam>
        </note>
      <note default-x="123.55" default-y="-172.89">
        <pitch>
          <step>F</step>
          <alter>1</alter>
          <octave>3</octave>
          </pitch>
        <duration>1</duration>
        <voice>2</voice>
        <type>eighth</type>
        <stem>down</stem>
        <beam number="1">begin</beam>
        </note>
      <note default-x="155.43" default-y="-177.89">
        <pitch>
          <step>E</step>
          <octave>3</octave>
          </pitch>
        <duration>1</duration>
        <voice>2</voice>
        <type>eighth</type>
        <stem>down</stem>
        <beam number="1">end</beam>
        </note>
      <note default-x="187.3" default-y="-182.89">
        <pitch>
          <step>D</step>
          <octave>3</octave>
          </pitch>
        <duration>2</duration>
        <voice>2</voice>
        <type>quarter</type>
        <stem>down</stem>
        </note>
      </measure>
    <measure number="8" width="244.95">
      <note default-x="12" default-y="-147.89">
        <pitch>
          <step>D</step>
          <octave>4</octave>
          </pitch>
        <duration>2</duration>
        <voice>1</voice>
        <type>quarter</type>
        <stem>up</stem>
        </note>
      <note default-x="75.75" default-y="-152.89">
        <pitch>
          <step>C</step>
          <alter>1</alter>
          <octave>4</octave>
          </pitch>
        <duration>2</duration>
        <voice>1</voice>
        <type>quarter</type>
        <stem>up</stem>
        </note>
      <note default-x="139.49" default-y="-162.89">
        <pitch>
          <step>A</step>
          <octave>3</octave>
          </pitch>
        <duration>2</duration>
        <voice>1</voice>
        <type>quarter</type>
        <stem>up</stem>
        </note>
      <note default-x="195.34" default-y="-162.89">
        <pitch>
          <step>A</step>
          <octave>3</octave>
          </pitch>
        <duration>2</duration>
        <voice>1</voice>
        <type>quarter</type>
        <stem>up</stem>
        </note>
      <backup>
        <duration>8</duration>
        </backup>
      <note default-x="12" default-y="-162.89">
        <pitch>
          <step>A</step>
          <octave>3</octave>
          </pitch>
        <duration>2</duration>
        <voice>2</voice>
        <type>quarter</type>
        <stem>down</stem>
        </note>
      <note default-x="75.75" default-y="-197.89">
        <pitch>
          <step>A</step>
          <octave>2</octave>
          </pitch>
        <duration>2</duration>
        <voice>2</voice>
        <type>quarter</type>
        <stem>down</stem>
        </note>
      <note default-x="139.49" default-y="-182.89">
        <pitch>
          <step>D</step>
          <octave>3</octave>
          </pitch>
        <duration>2</duration>
        <voice>2</voice>
        <type>quarter</type>
        <stem>down</stem>
        </note>
      <note default-x="195.34" default-y="-182.89">
        <pitch>
          <step>D</step>
          <octave>3</octave>
          </pitch>
        <duration>2</duration>
        <voice>2</voice>
        <type>quarter</type>
        <stem>down</stem>
        </note>
      </measure>
    <measure number="9" width="338.41">
      <print new-system="yes">
        <staff-layout number="1">
          <staff-distance>120.39</staff-distance>
          </staff-layout>
        </print>
      <note default-x="101.42" default-y="-160.39">
        <pitch>
          <step>A</step>
          <octave>3</octave>
          </pitch>
        <duration>1</duration>
        <voice>1</voice>
        <type>eighth</type>
        <stem>up</stem>
        <beam number="1">begin</beam>
        </note>
      <note default-x="135.02" default-y="-155.39">
        <pitch>
          <step>B</step>
          <octave>3</octave>
          </pitch>
        <duration>1</duration>
        <voice>1</voice>
        <type>eighth</type>
        <stem>up</stem>
        <beam number="1">end</beam>
        </note>
      <note default-x="168.62" default-y="-150.39">
        <pitch>
          <step>C</step>
          <alter>1</alter>
          <octave>4</octave>
          </pitch>
        <duration>2</duration>
        <voice>1</voice>
        <type>quarter</type>
        <stem>up</stem>
        </note>
      <note default-x="219.02" default-y="-155.39">
        <pitch>
          <step>B</step>
          <octave>3</octave>
          </pitch>
        <duration>2</duration>
        <voice>1</voice>
        <type>quarter</type>
        <stem>up</stem>
        </note>
      <note default-x="286.21" default-y="-140.39">
        <pitch>
          <step>E</step>
          <octave>4</octave>
          </pitch>
        <duration>2</duration>
        <voice>1</voice>
        <type>quarter</type>
        <stem>up</stem>
        </note>
      <backup>
        <duration>8</duration>
        </backup>
      <note default-x="101.42" default-y="-160.39">
        <pitch>
          <step>A</step>
          <octave>3</octave>
          </pitch>
        <duration>1</duration>
        <voice>2</voice>
        <type>eighth</type>
        <stem>down</stem>
        <beam number="1">begin</beam>
        </note>
      <note default-x="135.02" default-y="-165.39">
        <pitch>
          <step>G</step>
          <alter>1</alter>
          <octave>3</octave>
          </pitch>
        <duration>1</duration>
        <voice>2</voice>
        <type>eighth</type>
        <accidental cautionary="yes" parentheses="no">sharp</accidental>
        <stem>down</stem>
        <beam number="1">end</beam>
        </note>
      <note default-x="168.62" default-y="-170.39">
        <pitch>
          <step>F</step>
          <alter>1</alter>
          <octave>3</octave>
          </pitch>
        <duration>2</duration>
        <voice>2</voice>
        <type>quarter</type>
        <stem>down</stem>
        </note>
      <note default-x="219.02" default-y="-165.39">
        <pitch>
          <step>G</step>
          <alter>1</alter>
          <octave>3</octave>
          </pitch>
        <duration>2</duration>
        <voice>2</voice>
        <type>quarter</type>
        <stem>down</stem>
        </note>
      <note default-x="286.21" default-y="-150.39">
        <pitch>
          <step>C</step>
          <alter>1</alter>
          <octave>4</octave>
          </pitch>
        <duration>2</duration>
        <voice>2</voice>
        <type>quarter</type>
        <stem>down</stem>
        </note>
      </measure>
    <measure number="10" width="208.73">
      <note default-x="13.74" default-y="-135.39">
        <pitch>
          <step>F</step>
          <alter>1</alter>
          <octave>4</octave>
          </pitch>
        <duration>2</duration>
        <voice>1</voice>
        <type>quarter</type>
        <stem>up</stem>
        </note>
      <note default-x="80.94" default-y="-140.39">
        <pitch>
          <step>E</step>
          <octave>4</octave>
          </pitch>
        <duration>2</duration>
        <voice>1</voice>
        <type>quarter</type>
        <stem>up</stem>
        </note>
      <note default-x="131.33" default-y="-140.39">
        <pitch>
          <step>E</step>
          <octave>4</octave>
          </pitch>
        <duration>4</duration>
        <voice>1</voice>
        <type>half</type>
        <stem>up</stem>
        </note>
      <backup>
        <duration>8</duration>
        </backup>
      <note default-x="13.74" default-y="-170.39">
        <pitch>
          <step>F</step>
          <alter>1</alter>
          <octave>3</octave>
          </pitch>
        <duration>1</duration>
        <voice>2</voice>
        <type>eighth</type>
        <stem>down</stem>
        <beam number="1">begin</beam>
        </note>
      <note default-x="47.34" default-y="-165.39">
        <pitch>
          <step>G</step>
          <alter>1</alter>
          <octave>3</octave>
          </pitch>
        <duration>1</duration>
        <voice>2</voice>
        <type>eighth</type>
        <stem>down</stem>
        <beam number="1">end</beam>
        </note>
      <note default-x="80.94" default-y="-160.39">
        <pitch>
          <step>A</step>
          <octave>3</octave>
          </pitch>
        <duration>2</duration>
        <voice>2</voice>
        <type>quarter</type>
        <stem>down</stem>
        </note>
      <note default-x="131.33" default-y="-175.39">
        <pitch>
          <step>E</step>
          <octave>3</octave>
          </pitch>
        <duration>4</duration>
        <voice>2</voice>
        <type>half</type>
        <stem>down</stem>
        </note>
      </measure>
    <measure number="11" width="278.36">
      <note default-x="24.58" default-y="-140.39">
        <pitch>
          <step>E</step>
          <octave>4</octave>
          </pitch>
        <duration>2</duration>
        <voice>1</voice>
        <type>quarter</type>
        <stem>up</stem>
        </note>
      <note default-x="91.78" default-y="-135.39">
        <pitch>
          <step>F</step>
          <alter>1</alter>
          <octave>4</octave>
          </pitch>
        <duration>2</duration>
        <voice>1</voice>
        <type>quarter</type>
        <stem>up</stem>
        </note>
      <note default-x="158.97" default-y="-140.39">
        <pitch>
          <step>E</step>
          <octave>4</octave>
          </pitch>
        <duration>2</duration>
        <voice>1</voice>
        <type>quarter</type>
        <stem>up</stem>
        </note>
      <note default-x="226.17" default-y="-140.39">
        <pitch>
          <step>E</step>
          <octave>4</octave>
          </pitch>
        <duration>2</duration>
        <voice>1</voice>
        <type>quarter</type>
        <stem>up</stem>
        </note>
      <backup>
        <duration>8</duration>
        </backup>
      <note default-x="24.58" default-y="-160.39">
        <pitch>
          <step>A</step>
          <octave>3</octave>
          </pitch>
        <duration>1</duration>
        <voice>2</voice>
        <type>eighth</type>
        <stem>down</stem>
        <beam number="1">begin</beam>
        </note>
      <note default-x="58.18" default-y="-170.39">
        <pitch>
          <step>F</step>
          <alter>1</alter>
          <octave>3</octave>
          </pitch>
        <duration>1</duration>
        <voice>2</voice>
        <type>eighth</type>
        <stem>down</stem>
        <beam number="1">end</beam>
        </note>
      <note default-x="91.78" default-y="-175.39">
        <pitch>
          <step>E</step>
          <octave>3</octave>
          </pitch>
        <duration>1</duration>
        <voice>2</voice>
        <type>eighth</type>
        <stem>down</stem>
        <beam number="1">begin</beam>
        </note>
      <note default-x="125.37" default-y="-180.39">
        <pitch>
          <step>D</step>
          <octave>3</octave>
          </pitch>
        <duration>1</duration>
        <voice>2</voice>
        <type>eighth</type>
        <stem>down</stem>
        <beam number="1">end</beam>
        </note>
      <note default-x="158.97" default-y="-185.39">
        <pitch>
          <step>C</step>
          <alter>1</alter>
          <octave>3</octave>
          </pitch>
        <duration>1</duration>
        <voice>2</voice>
        <type>eighth</type>
        <stem>down</stem>
        <beam number="1">begin</beam>
        </note>
      <note default-x="192.57" default-y="-190.39">
        <pitch>
          <step>B</step>
          <octave>2</octave>
          </pitch>
        <duration>1</duration>
        <voice>2</voice>
        <type>eighth</type>
        <stem>down</stem>
        <beam number="1">end</beam>
        </note>
      <note default-x="226.17" default-y="-195.39">
        <pitch>
          <step>A</step>
          <octave>2</octave>
          </pitch>
        <duration>2</duration>
        <voice>2</voice>
        <type>quarter</type>
        <stem>down</stem>
        </note>
      </measure>
    <measure number="12" width="236.29">
      <note default-x="12" default-y="-140.39">
        <pitch>
          <step>E</step>
          <octave>4</octave>
          </pitch>
        <duration>1</duration>
        <voice>1</voice>
        <type>eighth</type>
        <stem>up</stem>
        <beam number="1">begin</beam>
        </note>
      <note default-x="45.6" default-y="-155.39">
        <pitch>
          <step>B</step>
          <octave>3</octave>
          </pitch>
        <duration>1</duration>
        <voice>1</voice>
        <type>eighth</type>
        <stem>up</stem>
        <beam number="1">end</beam>
        </note>
      <note default-x="79.2" default-y="-140.39">
        <pitch>
          <step>E</step>
          <octave>4</octave>
          </pitch>
        <duration>1</duration>
        <voice>1</voice>
        <type>eighth</type>
        <stem>up</stem>
        <beam number="1">begin</beam>
        </note>
      <note default-x="112.79" default-y="-145.39">
        <pitch>
          <step>D</step>
          <octave>4</octave>
          </pitch>
        <duration>1</duration>
        <voice>1</voice>
        <type>eighth</type>
        <stem>up</stem>
        <beam number="1">end</beam>
        </note>
      <note default-x="146.39" default-y="-150.39">
        <pitch>
          <step>C</step>
          <alter>1</alter>
          <octave>4</octave>
          </pitch>
        <duration>4</duration>
        <voice>1</voice>
        <type>half</type>
        <stem>up</stem>
        </note>
      <backup>
        <duration>8</duration>
        </backup>
      <note default-x="12" default-y="-175.39">
        <pitch>
          <step>E</step>
          <octave>3</octave>
          </pitch>
        <duration>2</duration>
        <voice>2</voice>
        <type>quarter</type>
        <stem>down</stem>
        </note>
      <note default-x="79.2" default-y="-175.39">
        <pitch>
          <step>E</step>
          <octave>3</octave>
          </pitch>
        <duration>2</duration>
        <voice>2</voice>
        <type>quarter</type>
        <stem>down</stem>
        </note>
      <note default-x="146.39" default-y="-195.39">
        <pitch>
          <step>A</step>
          <octave>2</octave>
          </pitch>
        <duration>4</duration>
        <voice>2</voice>
        <type>half</type>
        <stem>down</stem>
        </note>
      <barline location="right">
        <bar-style>light-heavy</bar-style>
        </barline>
      </measure>
    </part>
  </score-partwise>
